<?xml version="1.0" encoding="utf-8"?>
<!-- Generator: Adobe Illustrator 27.5.0, SVG Export Plug-In . SVG Version: 6.00 Build 0)  -->
<svg version="1.1" xmlns="http://www.w3.org/2000/svg" xmlns:xlink="http://www.w3.org/1999/xlink" x="0px" y="0px"
	 viewBox="0 0 500 500" style="enable-background:new 0 0 500 500;" xml:space="preserve">
<g id="Background_Complete">

	<g>
		<g>
			<g>
				<path style="fill:#F5F5F5;" d="M96.351,30.024C74.551,36.03,52.355,45.033,37.163,63.307
					c-16.941,20.377-22.668,49.585-21.747,77.225c0.921,27.639,7.731,54.557,12.822,81.638c8.42,44.789,12.193,90.64,11.223,136.371
					c-0.451,21.23-16.39,82.01-3.16,97.424c11.66,13.585,30.159,15.831,46.976,18.188c53.413,7.483,120.73-12.714,173.94-3.639
					c53.21,9.075,136.997,21.824,186.656-1.144c25.095-11.606,29.132-110.418,28.734-129.448
					c-0.747-35.687,9.767-70.528,11.739-106.158c2.262-40.885-7.096-82.461-26.432-117.42
					c-15.814-28.592-39.064-53.301-67.865-63.849c-27.89-10.215-58.125-6.493-87.485-5.177c-17.014,0.763-34.359,0.533-51.039-3.657
					c-8.154-2.048-16.122-5.018-23.546-9.297c-6.856-3.952-63.678-15.475-73.62-14.649C134.808,21.339,115.373,24.774,96.351,30.024
					z"/>
					
				<g>
				
					<path style="fill:#E6E6E6;" d="M52.684,245.188l1.424-0.026l-1.128-0.869c-1.036-0.799-1.995-1.692-2.862-2.666
						c-0.01-0.039-0.022-0.078-0.035-0.116c-0.188-0.573-0.584-0.975-1.114-1.13l-1.487-0.436l0.952,1.223
						c0.243,0.313,0.495,0.619,0.754,0.918c0.036,0.34-0.054,0.707-0.246,0.961c-0.488,0.64-1.343,0.921-2.328,1.197l-4.046,1.137
						c0.111-0.765-0.054-1.655-0.494-2.63c-0.112-0.248-0.234-0.494-0.356-0.74c-0.362-0.732-0.705-1.422-0.777-2.157
						c-0.052-0.527,0.123-1.114,0.446-1.494c0.211-0.249,0.458-0.384,0.735-0.402l1.014-0.067l-0.671-0.762
						c-0.501-0.569-1.239-0.84-2.073-0.763c-1.028,0.095-2.022,0.708-2.532,1.564c-0.706,1.183-0.799,2.74-0.286,4.763
						c0.46,1.814,1.181,3.55,2.141,5.158l0.429-0.256l1.054,0.269c0,0,0,0,0,0l0.249,0.433
						C44.86,246.334,48.746,245.26,52.684,245.188z"/>
					<path style="fill:#E6E6E6;" d="M57.168,264.862l-0.386-0.267l-0.291,0.368c-0.676,0.857-2.027,0.904-3.068,0.659
						c-2.363-0.55-4.568-2.384-6.049-5.033c-1.362-2.437-2.021-5.223-2.659-7.917l-0.986,0.146c0.21,3.476,0.953,8.617,3.3,13.36
						c0.703,1.421,2.312,2.551,4.304,3.024c0.639,0.151,1.277,0.226,1.895,0.226c1.402,0,2.7-0.382,3.664-1.107
						c0.617-0.439,1.011-1.225,1.006-1.999C57.893,265.703,57.634,265.184,57.168,264.862z"/>
					<path style="fill:#E6E6E6;" d="M45.124,235.378c0.874,0.289,1.7,0.562,2.22,0.909c2.002,1.336,3.579,3.232,4.438,5.34
						l0.463-0.188c0,0,0,0,0,0s0,0,0,0l0.463-0.189c0-0.001,0-0.002,0-0.002c-1.345-3.295-5.771-9.759-10.907-8.723l-0.652,0.132
						l0.308,0.59C42.037,234.357,43.606,234.876,45.124,235.378z"/>
					<path style="fill:#E6E6E6;" d="M59.072,255.612l-1.019-0.521l0.309,1.102c0.523,1.867,0.973,3.773,1.338,5.676l-0.037-0.009
						c-0.094,0.369-0.027,0.778,0.184,1.124c0.21,0.346,0.544,0.592,0.915,0.678l0.354,0.081l0.187-0.311
						c0.75-1.249,0.93-2.841,0.494-4.369C61.362,257.534,60.368,256.277,59.072,255.612z"/>
					<path style="fill:#E6E6E6;" d="M77.407,277.244l0.311-0.392l1.08-0.122l0.387,0.318c2.497-3.046,5.748-5.43,9.404-6.895
						l1.324-0.53l-1.365-0.412c-1.249-0.378-2.462-0.872-3.621-1.475c-0.024-0.032-0.048-0.065-0.074-0.097
						c-0.38-0.469-0.894-0.715-1.443-0.661l-1.545,0.119l1.323,0.806c0.339,0.206,0.683,0.403,1.031,0.591
						c0.154,0.305,0.201,0.68,0.11,0.984c-0.228,0.77-0.928,1.338-1.751,1.946l-3.379,2.499c-0.168-0.754-0.638-1.528-1.395-2.283
						c-0.192-0.192-0.394-0.38-0.595-0.566c-0.599-0.555-1.164-1.079-1.492-1.741c-0.235-0.475-0.28-1.085-0.114-1.555
						c0.109-0.308,0.293-0.521,0.545-0.637l0.924-0.423l-0.898-0.475c-0.67-0.353-1.455-0.345-2.209,0.023
						c-0.927,0.452-1.638,1.379-1.812,2.36c-0.24,1.356,0.225,2.846,1.423,4.555C74.65,274.715,75.939,276.082,77.407,277.244z"/>
					<path style="fill:#E6E6E6;" d="M99.762,286.957l-0.456-0.112l-0.141,0.447c-0.329,1.041-1.576,1.564-2.634,1.706
						c-2.402,0.32-5.116-0.607-7.441-2.559c-2.136-1.793-3.742-4.165-5.295-6.459l-0.87,0.485c1.43,3.177,3.949,7.72,7.826,11.32
						c0.953,0.886,2.406,1.371,4.018,1.371c0.353,0,0.713-0.023,1.078-0.07c2.129-0.277,3.958-1.327,4.885-2.797
						c0.42-0.63,0.511-1.503,0.23-2.225C100.739,287.486,100.312,287.093,99.762,286.957z"/>
					<path style="fill:#E6E6E6;" d="M78.041,263.665c0.92-0.04,1.788-0.078,2.397,0.063c2.346,0.538,4.493,1.752,6.044,3.418
						l0.366-0.341c0,0,0,0,0,0c0,0,0,0,0,0l0.366-0.341c-2.424-2.603-8.866-7.077-13.292-4.286l-0.563,0.354l0.497,0.442
						C74.791,263.807,76.444,263.736,78.041,263.665z"/>
					<path style="fill:#E6E6E6;" d="M98.261,277.634l-1.138-0.127l0.68,0.921c1.149,1.555,2.245,3.178,3.265,4.832l-0.038,0.004
						c0.043,0.379,0.251,0.738,0.571,0.986c0.268,0.208,0.593,0.321,0.914,0.321c0.061,0,0.122-0.004,0.182-0.013l0.36-0.049
						l0.064-0.357c0.258-1.433-0.138-2.985-1.088-4.259C101.083,278.619,99.708,277.796,98.261,277.634z"/>
					<path style="fill:#E6E6E6;" d="M458.58,333.518c0.542,0.698,1.046,1.316,1.717,1.798c0.513,0.369,1.077,0.602,1.629,0.685
						c0.321,0.048,0.639,0.045,0.941-0.013l0.793-0.151l-2.829-3.107c-0.255-0.279-0.518-0.568-0.619-0.892
						c-0.218-0.703,0.338-1.506,0.911-2.2c0.501-0.607,1.03-0.914,1.641-1.269c0.222-0.129,0.449-0.262,0.681-0.411l0.575-0.37
						l-0.565-0.383c-1.529-1.037-3.208,0.255-4.015,0.877c-0.924,0.713-1.915,1.576-1.985,2.814
						C457.398,331.905,457.979,332.745,458.58,333.518z"/>
					<path style="fill:#E6E6E6;" d="M452.578,347.287c-0.62-1.983-0.43-4.182,0.521-6.03c0.95-1.848,2.627-3.281,4.602-3.932
						l0.616-0.203l-0.404-0.507c-0.31-0.39-0.772-0.657-1.256-0.698l-0.015-0.061v0v0l-0.111-0.438
						c-2.831,0.713-5.148,2.509-6.199,4.804c-1.212,2.647-0.553,5.894,1.532,7.555l1.152,0.917L452.578,347.287z"/>
					<path style="fill:#E6E6E6;" d="M459.748,349.443c-1.22,0.977-2.572,1.453-3.807,1.341c-0.243-0.037-0.954-0.402-1.433-0.654
						c-1.191-0.626-1.846-0.97-2.179-0.44c-0.19,0.302-0.207,0.658-0.047,1.001c0.492,1.058,2.688,1.933,3.226,2.013
						c0.002,0,0.005,0.001,0.007,0.001c1.673,0.233,3.478-0.417,4.954-1.784c1.291-1.195,2.172-2.756,2.932-4.264l-0.766-0.474
						C461.772,347.34,460.878,348.539,459.748,349.443z"/>
					<path style="fill:#E6E6E6;" d="M467.973,331.654c0.008-0.251-0.016-0.525-0.087-0.828l-0.89,0.147l0.049,0.486
						c0.008,0.074,0.015,0.149,0.022,0.222c-0.03,0.477-0.237,0.85-0.481,1.289c-0.234,0.422-0.5,0.9-0.581,1.505
						c-0.105,0.779,0.302,1.585,0.992,1.961l0.459,0.25l0.182-0.489C468.226,334.611,468.124,333.166,467.973,331.654z"/>
					<path style="fill:#E6E6E6;" d="M432.696,329.999c0.542,0.698,1.045,1.315,1.716,1.797c0.513,0.369,1.076,0.602,1.629,0.685
						c0.322,0.048,0.64,0.045,0.942-0.013l0.793-0.151l-2.829-3.106c-0.256-0.281-0.52-0.571-0.619-0.892
						c-0.218-0.703,0.338-1.507,0.911-2.201c0.501-0.607,1.029-0.913,1.64-1.268c0.222-0.128,0.449-0.261,0.682-0.411l0.575-0.37
						l-0.565-0.383c-1.529-1.044-3.208,0.255-4.015,0.877c-0.923,0.711-1.915,1.574-1.985,2.813
						C431.514,328.385,432.095,329.225,432.696,329.999z"/>
					<path style="fill:#E6E6E6;" d="M426.694,343.768c-0.619-1.984-0.429-4.183,0.522-6.031c0.95-1.848,2.627-3.281,4.602-3.932
						l0.615-0.203l-0.403-0.507c-0.309-0.39-0.751-0.639-1.256-0.699l-0.015-0.06l0,0c0,0,0,0,0,0l-0.11-0.438
						c-2.83,0.712-5.148,2.508-6.199,4.804c-1.212,2.647-0.553,5.894,1.532,7.555l1.151,0.917L426.694,343.768z"/>
					<path style="fill:#E6E6E6;" d="M429.631,349.185c1.647,0.23,3.5-0.437,4.954-1.784c1.289-1.194,2.171-2.754,2.933-4.263
						l-0.765-0.475c-0.866,1.16-1.761,2.359-2.888,3.261c-1.222,0.977-2.574,1.454-3.808,1.342
						c-0.241-0.043-0.954-0.402-1.433-0.654c-1.191-0.626-1.846-0.971-2.179-0.44c-0.19,0.302-0.207,0.658-0.047,1.002
						c0.493,1.058,2.686,1.931,3.225,2.011C429.626,349.185,429.629,349.185,429.631,349.185z"/>
					<path style="fill:#E6E6E6;" d="M441.113,332.917l0.458,0.25l0.182-0.489c0.589-1.585,0.486-3.03,0.336-4.54
						c0.009-0.252-0.016-0.527-0.087-0.83l-0.89,0.147l0.049,0.487c0.008,0.075,0.015,0.149,0.023,0.223
						c-0.03,0.477-0.238,0.85-0.481,1.288c-0.234,0.421-0.5,0.899-0.581,1.504C440.015,331.734,440.423,332.54,441.113,332.917z"/>
					<path style="fill:#E6E6E6;" d="M432.219,363.858c-0.923,0.711-1.915,1.574-1.985,2.814c-0.057,1.011,0.525,1.851,1.126,2.624
						c0.521,0.671,1.044,1.313,1.716,1.797c0.513,0.369,1.076,0.602,1.628,0.685c0.322,0.048,0.64,0.045,0.943-0.013l0.793-0.151
						l-2.829-3.106c-0.255-0.28-0.519-0.57-0.62-0.893c-0.217-0.699,0.309-1.47,0.911-2.2c0.502-0.608,1.031-0.915,1.644-1.27
						c0.221-0.128,0.447-0.259,0.679-0.408l0.575-0.369l-0.566-0.384C434.705,361.94,433.026,363.237,432.219,363.858z"/>
					<path style="fill:#E6E6E6;" d="M425.358,383.065c-0.62-1.984-0.429-4.183,0.521-6.03c0.951-1.849,2.628-3.283,4.602-3.932
						l0.616-0.203l-0.404-0.507c-0.309-0.39-0.782-0.642-1.255-0.699l-0.016-0.061l0,0l0,0l-0.11-0.439
						c-2.831,0.713-5.148,2.509-6.199,4.805c-1.212,2.647-0.554,5.894,1.532,7.555l1.152,0.917L425.358,383.065z"/>
					<path style="fill:#E6E6E6;" d="M432.528,385.22c-1.22,0.977-2.572,1.453-3.807,1.342c-0.222-0.03-0.953-0.402-1.431-0.653
						c-1.191-0.629-1.847-0.974-2.18-0.442c-0.19,0.303-0.207,0.659-0.047,1.002c0.493,1.058,2.686,1.931,3.225,2.011
						c0.003,0,0.005,0.001,0.008,0.001c1.672,0.233,3.478-0.417,4.954-1.784c1.29-1.195,2.172-2.756,2.932-4.264l-0.766-0.474
						C434.551,383.118,433.657,384.317,432.528,385.22z"/>
					<path style="fill:#E6E6E6;" d="M440.666,366.604l-0.89,0.147l0.049,0.487c0.007,0.074,0.015,0.148,0.022,0.221
						c-0.03,0.477-0.237,0.85-0.481,1.289c-0.234,0.421-0.5,0.899-0.581,1.504c-0.105,0.779,0.302,1.585,0.992,1.961l0.459,0.25
						l0.182-0.489c0.589-1.586,0.487-3.031,0.336-4.542C440.761,367.181,440.736,366.907,440.666,366.604z"/>
					<path style="fill:#E6E6E6;" d="M87.168,312.575l1.425-0.026l-1.129-0.87c-1.034-0.796-1.992-1.689-2.862-2.664
						c-0.011-0.039-0.022-0.078-0.035-0.116c-0.188-0.574-0.584-0.975-1.115-1.13l-1.486-0.435l0.951,1.222
						c0.244,0.313,0.495,0.618,0.754,0.916c0.036,0.341-0.054,0.707-0.247,0.961c-0.487,0.64-1.342,0.921-2.327,1.197l-4.046,1.137
						c0.111-0.764-0.054-1.655-0.494-2.629c-0.113-0.25-0.235-0.497-0.358-0.744c-0.362-0.729-0.704-1.419-0.775-2.153
						c-0.052-0.528,0.123-1.115,0.446-1.495c0.211-0.249,0.458-0.384,0.735-0.402l1.014-0.067l-0.671-0.762
						c-0.501-0.569-1.239-0.843-2.073-0.763c-1.028,0.095-2.022,0.708-2.532,1.564c-0.706,1.183-0.799,2.741-0.286,4.764
						c0.461,1.815,1.181,3.551,2.141,5.157l0.429-0.256l0,0l1.053,0.269l0.249,0.434C79.346,313.722,83.232,312.647,87.168,312.575z
						"/>
					<path style="fill:#E6E6E6;" d="M91.652,332.25l-0.386-0.267l-0.291,0.368c-0.676,0.855-2.028,0.904-3.068,0.66
						c-2.363-0.55-4.567-2.385-6.049-5.034c-1.363-2.438-2.021-5.224-2.658-7.917l-0.986,0.146c0.209,3.477,0.952,8.617,3.3,13.36
						c0.703,1.42,2.311,2.551,4.301,3.024c0.64,0.151,1.279,0.226,1.898,0.226c1.402,0,2.7-0.382,3.664-1.106
						c0.617-0.44,1.011-1.226,1.005-2C92.377,333.09,92.118,332.571,91.652,332.25z"/>
					<path style="fill:#E6E6E6;" d="M87.142,308.517c-1.4-3.328-5.793-9.624-10.856-8.604l-0.653,0.132l0.308,0.59
						c0.58,1.11,2.15,1.63,3.669,2.132c0.873,0.288,1.698,0.561,2.218,0.908c1.997,1.333,3.57,3.222,4.431,5.321
						c0.002,0.007,0.005,0.013,0.008,0.018l0.463-0.188c0,0,0,0,0,0c0,0,0,0,0,0l0.463-0.189
						C87.176,308.597,87.159,308.557,87.142,308.517z"/>
					<path style="fill:#E6E6E6;" d="M93.556,323l-1.019-0.522l0.309,1.102c0.522,1.862,0.972,3.768,1.337,5.676l-0.036-0.009
						c-0.094,0.369-0.027,0.778,0.184,1.124c0.211,0.346,0.545,0.593,0.916,0.678l0.354,0.081l0.187-0.311
						c0.75-1.248,0.93-2.841,0.494-4.369C95.846,324.922,94.852,323.665,93.556,323z"/>
				</g>
			</g>
			<g>
				<g>
					<g>
						<path style="fill:#E6E6E6;" d="M315.526,110.055c0.514,2.828,2.87,5.175,5.655,5.884c2.785,0.708,5.869-0.155,8.033-2.047
							c1.417-1.239,2.496-3.004,2.457-4.887c-0.029-1.414-0.683-2.756-1.558-3.867C325.307,99.04,313.832,100.728,315.526,110.055z"
							/>
						<g>
							<path style="fill:#E6E6E6;" d="M335.573,103.426c-1.412,1.384-1.512,3.886-0.215,5.378c1.297,1.492,3.788,1.742,5.355,0.537
								c1.567-1.205,1.966-3.677,0.858-5.314c-1.109-1.637-3.552-2.183-5.253-1.175L335.573,103.426z"/>
						</g>
						<g>
							<path style="fill:#E6E6E6;" d="M332.596,115.344c-1.121,0.667-1.298,2.48-0.326,3.351c0.972,0.871,2.754,0.498,3.295-0.69
								c0.541-1.188-0.348-2.777-1.643-2.939L332.596,115.344z"/>
						</g>
					</g>
					<g>
						<path style="fill:#E6E6E6;" d="M220.995,204.106c-1.474,2.467-1.244,5.786,0.387,8.152c1.631,2.366,4.522,3.745,7.396,3.745
							c1.883-0.001,3.856-0.62,5.065-2.063c0.908-1.084,1.299-2.525,1.371-3.937C235.609,202.247,225.856,195.968,220.995,204.106z"
							/>
						<g>
							<path style="fill:#E6E6E6;" d="M240.452,212.305c-1.974,0.113-3.695,1.931-3.701,3.908c-0.005,1.977,1.706,3.805,3.679,3.929
								c1.973,0.124,3.9-1.475,4.142-3.437c0.242-1.962-1.238-3.981-3.182-4.341L240.452,212.305z"/>
						</g>
					</g>
					<g>
						<g>
							<path style="fill:#E6E6E6;" d="M172.612,408.91c-4.27,0.937-6.497,6.815-3.921,10.347c2.576,3.531,8.854,3.204,11.05-0.576
								c2.196-3.78-0.631-9.395-4.975-9.883L172.612,408.91z"/>
						</g>
						<g>
							<path style="fill:#E6E6E6;" d="M177.764,399.793c-1.389,2.217,1.024,5.48,3.616,5.125c2.592-0.355,4.885-4.04,3.177-6.022
								C180.502,394.189,177.764,399.793,177.764,399.793z"/>
						</g>
						<g>
							<path style="fill:#E6E6E6;" d="M184.818,409.286c-1.389,2.217,1.024,5.48,3.616,5.125c2.592-0.355,4.885-4.04,3.177-6.022
								C187.557,403.683,184.818,409.286,184.818,409.286z"/>
						</g>
					</g>
					<g>
						<g>
							<path style="fill:#E6E6E6;" d="M172.034,36.961c0.46,3.215-2.867,6.35-7.43,7.003c-4.563,0.653-8.635-1.424-9.095-4.639
								c-0.46-3.215,2.867-6.35,7.43-7.003C167.502,31.669,171.574,33.746,172.034,36.961z"/>
							<path style="fill:#E6E6E6;" d="M181.802,45.84c0.06,1.914-2.093,3.534-4.809,3.619c-2.716,0.085-4.967-1.397-5.027-3.311
								c-0.06-1.914,2.093-3.534,4.809-3.619C179.492,42.444,181.742,43.927,181.802,45.84z"/>
						</g>
						<g>
							<path style="fill:#E6E6E6;" d="M401.371,459.985c-3.025-1.182-4.117-5.62-2.44-9.914c1.677-4.293,5.489-6.816,8.514-5.634
								c3.025,1.182,4.117,5.62,2.44,9.914C408.208,458.644,404.396,461.166,401.371,459.985z"/>
							<path style="fill:#E6E6E6;" d="M388.835,464.119c-1.695-0.889-2.046-3.561-0.784-5.968c1.262-2.406,3.66-3.636,5.356-2.747
								c1.695,0.889,2.046,3.561,0.784,5.968C392.928,463.779,390.53,465.009,388.835,464.119z"/>
						</g>
					</g>
				</g>
				<g>
					<path style="fill:#E6E6E6;" d="M110.585,441.049c0.03-3.247,3.791-5.846,8.4-5.803c4.609,0.043,8.322,2.71,8.292,5.957
						s-3.791,5.846-8.4,5.803C114.267,446.964,110.555,444.297,110.585,441.049z"/>
					<path style="fill:#E6E6E6;" d="M102.266,430.799c0.229-1.901,2.602-3.178,5.3-2.853c2.698,0.325,4.699,2.13,4.47,4.031
						c-0.229,1.901-2.602,3.178-5.3,2.853C104.038,434.505,102.037,432.7,102.266,430.799z"/>
				</g>
			</g>
			<g>
				<path style="fill:#E6E6E6;" d="M239.707,50.512c2.904-1.087,6.339-0.621,8.848,1.202c2.509,1.822,4.015,4.945,3.879,8.043
					c2.135-1.031,4.802,0.15,6.614,1.678c1.812,1.529,2.61,4.159,1.953,6.437c1.83-0.538,3.893,0.809,5.2,2.199
					c1.307,1.39,1.748,3.532,1.098,5.326c1.588-1.277,2.217-5.023,1.505-6.932c-0.712-1.909-2.723-3.252-4.76-3.177
					c0.691-2.449-0.302-5.099-2.076-6.923c-1.774-1.824-4.546-2.609-7.013-1.986c1.08-3.342-2.404-7.109-5.831-7.879
					C245.697,47.729,243.026,49.363,239.707,50.512z"/>
				<path style="fill:#E6E6E6;" d="M252.289,294.44c3.198-0.15,6.427,1.396,8.315,3.98c1.889,2.585,2.381,6.13,1.268,9.132
					c2.424-0.338,4.672,1.666,5.969,3.742c1.297,2.076,1.249,4.913-0.117,6.944c1.969,0.05,3.571,2.026,4.415,3.806
					c0.844,1.78,0.601,4.025-0.606,5.582c1.965-0.753,3.768-4.235,3.672-6.337c-0.096-2.102-1.648-4.057-3.673-4.628
					c1.453-2.188,1.316-5.107,0.15-7.461c-1.167-2.354-3.643-4.003-6.265-4.171c2.119-2.943-0.113-7.748-3.238-9.588
					C259.056,293.599,255.914,294.361,252.289,294.44z"/>
				<path style="fill:#E6E6E6;" d="M458.029,177.367c-0.37-0.018-0.739-0.036-1.109-0.055c5.185-0.831,11.546,4.658,11.692,9.907
					c2.962,1.543,4.082,6.157,1.854,8.645c0.699-2.983-1.164-6.142-4.188-6.64c-0.755-5.436-6.697-10.455-12.021-9.124
					c0.085-2.874-1.428-5.745-3.847-7.299c-2.419-1.554-5.659-1.736-8.238-0.463c1.591-3.497,5.039-4.713,8.596-3.261
					C454.325,170.529,456.543,173.825,458.029,177.367z"/>
				<path style="fill:#E6E6E6;" d="M66.42,212.408c-2.701,1.768-6.278,2.115-9.268,0.899s-4.982-4.013-5.683-7.164
					c-3.685,0.544-7.613-1.271-9.587-4.43c-1.974-3.159-1.883-7.485,0.221-10.559c0.123,3.45,0.846,7.368,3.585,9.469
					c2.739,2.1,6.433,2.902,9.796,2.125c-0.329,2.652,0.671,4.886,2.608,6.726C60.031,211.316,63.789,212.873,66.42,212.408z"/>
				<path style="fill:#E6E6E6;" d="M262.709,246.761c-1.542,0.375-2.75,1.841-2.822,3.426c-0.072,1.585,0.998,3.155,2.499,3.668
					c-2.143,2.531-2.4,6.618-0.414,9.274c1.986,2.656,5.881,3.678,8.915,2.338c-0.582,0.764-0.351,2.47,0.327,3.151
					s1.868,0.766,2.635,0.187c-1.656,1.303-4.179,1.645-5.771,0.264c-0.046-0.29-0.091-0.58-0.136-0.87
					c-3.396,1.251-8.277-0.024-10.329-3.006c-2.052-2.982-1.801-7.344,0.581-10.07c-0.423-2.072-1.639-4.299-0.761-6.223
					C258.311,246.977,261.157,245.325,262.709,246.761z"/>
				<path style="fill:#E6E6E6;" d="M272.081,168.007c0.187-2.892,2.387-5.541,5.195-6.257c2.808-0.715,6.008,0.558,7.556,3.008
					c0.934-1.132,2.577-1.513,4.002-1.166c1.426,0.347,2.604,1.558,2.912,2.992c1.028-1.443,0.294-3.517-1.092-4.62
					c-1.386-1.103-3.626-0.908-4.801,0.417c-0.579-2.469-4.329-4.722-6.854-4.491c-2.525,0.23-4.736,1.935-6.147,4.042
					c-1.259,1.881-3.14,5.053-1.331,6.91C271.834,168.811,272.485,168.436,272.081,168.007z"/>
				<path style="fill:#E6E6E6;" d="M332.458,431.081c-6.841,4.405-16.328,2.508-21.593-3.695c-3.852,2.032-9.321-0.641-10.085-4.928
					c-1.15,2.83-2.956,5.348-0.696,7.402c2.26,2.055,5.828,2.515,8.536,1.101c2.995,3.893,6.984,6.588,11.893,6.437
					C325.422,437.248,329.707,435.151,332.458,431.081z"/>
				<path style="fill:#E6E6E6;" d="M439.238,399.803c1.618,1.388,2.41,3.675,1.996,5.766c-0.414,2.091-2.016,3.905-4.041,4.572
					c-0.232,2.613-2.012,5.027-4.154,6.542c-2.142,1.515-4.959,2.035-7.501,1.384c2.306,2.189,4.443,3.321,7.434,2.24
					s5.259-3.939,5.633-7.097c3.405,0.034,5.928-3.391,6.223-6.784C445.122,403.034,442.598,400.356,439.238,399.803z"/>
				<path style="fill:#E6E6E6;" d="M268.346,407.475c-2.939,1.529-6.729,1.255-9.417-0.681c-2.688-1.936-2.664-5.311-2.146-8.583
					c-3.805,0.899-8.1-1.14-9.808-4.657c-1.708-3.517-0.654-8.154,2.406-10.588c-2.78,2.868-2.32,8.317,0.886,10.7
					c3.205,2.384,7.731,2.301,11.436,0.807c-2.488,2.377-3.255,6.034-1.73,9.119C261.498,406.675,264.946,408.009,268.346,407.475z"
					/>
				<path style="fill:#E6E6E6;" d="M72.565,356.731c-2.601-1.072-5.93,0.188-7.169,2.715c-1.238,2.527-0.195,5.93,2.247,7.329
					c-4.067,0.856-8.178,5.068-8.379,9.219c-0.201,4.151,2.666,8.26,6.631,9.504c-3.199-2.578-3.921-6.815-1.7-10.271
					c2.221-3.456,6.026-5.534,9.784-7.193c-2.208-0.762-5.042-2.526-4.99-4.861C69.042,360.837,70.325,357.392,72.565,356.731z"/>
				<path style="fill:#E6E6E6;" d="M49.727,83.119c0.48-0.059,0.961-0.118,1.441-0.176c-1.861-3.585-5.99-5.855-10.014-5.507
					c-4.024,0.348-7.701,3.294-8.919,7.145C37.42,80.438,43.997,79.769,49.727,83.119z"/>
				<path style="fill:#E6E6E6;" d="M464.866,282.211c0.567,4.516-2.863,9.36-7.411,9.172c-0.616,2.83-2.868,5.242-5.649,6.049
					c-2.781,0.808-5.975-0.022-8.011-2.082c1.031,3.548,3.071,6.615,6.764,6.522c3.693-0.093,7.149-2.899,7.999-6.494
					C464.112,293.607,466.958,287.651,464.866,282.211z"/>
			</g>
			<g>
				<path style="fill:#E0E0E0;" d="M322.885,421.268c2.634,0.349,5.474,0.662,7.806-0.611c3.825-2.089,4.437-7.231,4.59-11.586
					c-0.26,3.801-3.608,6.829-7.263,7.902c-3.656,1.073-7.568,0.594-11.334,0.013c-6.088-0.939-18.195-6.047-23.786-4.152
					C301.189,418.832,313.038,419.965,322.885,421.268z"/>
				<g>
					<path style="fill:#E0E0E0;" d="M357.389,410.266c-1.053,3.826-1.869,8.558,1.073,11.222c1.754,1.588,4.307,1.851,6.671,1.94
						c11.843,0.449,23.772-1.508,34.85-5.717c-10.887,1.69-21.932,2.355-32.943,1.985c-2.276-0.077-4.613-0.212-6.69-1.148
						c-2.077-0.936-3.862-2.853-3.989-5.128L357.389,410.266z"/>
				</g>
				<path style="fill:#E0E0E0;" d="M308.021,252.554c-1.151,3.778-8.604,8.63-11.629,11.02c-4.393,3.471-9.106,6.462-14.035,9.108
					C293.606,273.205,304.868,262.9,308.021,252.554z"/>
				<path style="fill:#E0E0E0;" d="M413.464,268.595c3.204,4.488,6.492,9.06,10.971,12.277c4.479,3.217,10.445,4.893,15.604,2.946
					c-6.264,0.048-12.163-3.239-16.693-7.566c-4.529-4.327-7.933-9.667-11.521-14.802c-2.652-3.795-5.884-8.687-10.197-10.568
					C402.441,256.405,410.037,263.795,413.464,268.595z"/>
				<path style="fill:#E0E0E0;" d="M386.165,196.339c4.76-1.159,8.795-4.934,10.268-9.607c1.273-4.038,0.783-10.003-2.568-12.721
					C392.474,182.28,391.858,189.51,386.165,196.339z"/>
			</g>
			<path style="fill:#E0E0E0;" d="M72.582,396.455c1.904,1.466,4.353,1.975,6.71,2.442c8.703,1.727,17.406,3.454,26.109,5.181
				c-10.365,1.551-20.962,0.134-31.173-2.221c-3.605-0.831-7.734-2.275-8.845-5.804c-1.027-3.261,2.292-10.459,6.344-7.935
				C69.744,390.823,69.677,394.217,72.582,396.455z"/>
			<path style="fill:#E0E0E0;" d="M276.63,368.912c-1.717,1.438-3.805,2.348-5.86,3.238c3.857,0.798,8.089-0.574,10.744-3.482
				c1.707-1.87,2.779-4.543,2.047-6.967C281.909,356.228,283.292,363.334,276.63,368.912z"/>
			<path style="fill:#E0E0E0;" d="M236.404,180.835c-6.565-2.601-13.13-5.202-19.694-7.803c0,0-17.424-7.043-23.038-14.264
				c2.159,2.778,12.027,14.621,15.912,16.721C217.72,179.888,227.192,181.879,236.404,180.835z"/>
			<path style="fill:#E0E0E0;" d="M108.12,167.796c-9.332,14.238-21.648,22.649-34.511,32.957
				c7.816-0.181,16.476-6.592,21.877-11.851C102.064,182.495,103.43,174.951,108.12,167.796z"/>
			<path style="fill:#E0E0E0;" d="M176.968,82.539c-0.253,4.446-2.173,8.603-4.061,12.636c4.18-2.292,6.971-6.924,7.045-11.691
				c0.052-3.372-1.129-8.209-4.652-8.871C176.393,77.095,177.125,79.786,176.968,82.539z"/>
		</g>
		<g>
			<path style="fill:#E0E0E0;" d="M408.867,122.013c2.002-5.567,5.867-10.677,10.624-14.91c-6.657,0.496-13.146,7.342-15.765,15.091
				c0.477-7.369,3.432-15.793,8.076-25.183c-3.571,2.249-6.569,5.654-8.893,9.562c-1.007-5.191-3.066-10.124-6.294-13.792
				c1.796,10.32,2.245,19.237,0.616,26.439c-0.317-8.174-4.603-16.577-10.847-18.937c3.363,5.406,5.624,11.401,5.968,17.307
				c-2.312-4.431-5.813-7.746-9.837-8.619c4.014,3.407,7.097,9.54,7.119,14.835c2.475,1.755,16.068,6.31,20.078,4.937
				c1.52-5.072,6.214-10.081,11.028-12.213C416.635,116.23,412.339,118.419,408.867,122.013z"/>
			<path style="fill:#E0E0E0;" d="M411.263,133.096c-2.922-4.242-9.87-4.845-13.479-1.17c-2.862-4.98-8.287-8.39-14.016-8.811
				c6.201-3.612,13.812-1.683,17.382,4.542C405.567,127.408,409.284,129.14,411.263,133.096z"/>
		</g>
		<g>
			<path style="fill:#E0E0E0;" d="M234.924,446.177c0.013-5.916-1.881-12.037-4.912-17.636c6.09,2.732,9.861,11.379,9.684,19.557
				c2.06-7.091,2.15-16.018,0.98-26.428c2.592,3.331,4.252,7.552,5.106,12.018c2.715-4.538,6.329-8.475,10.614-10.825
				c-5.203,9.092-8.66,17.323-9.582,24.65c3.081-7.577,9.972-14.019,16.647-14.112c-5.003,3.938-9.17,8.805-11.504,14.241
				c3.683-3.378,8.103-5.304,12.183-4.754c-4.934,1.837-9.922,6.553-11.745,11.525c-2.925,0.808-17.257,0.462-20.559-2.194
				c0.298-5.287-2.41-11.595-6.211-15.238C229.588,438.094,232.883,441.615,234.924,446.177z"/>
			<path style="fill:#E0E0E0;" d="M228.897,455.781c4.192-2.994,10.93-1.195,13.072,3.49c4.387-3.708,10.649-5.067,16.178-3.513
				c-4.6-5.507-12.414-6.285-17.89-1.648C236.19,452.373,232.105,452.736,228.897,455.781z"/>
		</g>
		<path style="fill:#FFC0BA;" d="M455.585,200.52c-0.022-0.055-0.056-0.111-0.089-0.166
			C455.619,200.365,455.585,200.442,455.585,200.52z"/>
		<path style="fill:#FFC0BA;" d="M37.674,101.683c0.007-0.035,0.025-0.07,0.064-0.109C37.733,101.62,37.728,101.665,37.674,101.683z
			"/>
		<path style="fill:#FFC0BA;" d="M37.848,101.382c-0.037,0.061-0.085,0.123-0.11,0.193
			C37.738,101.485,37.704,101.389,37.848,101.382z"/>
	</g>
</g>
<g id="Background_Simple" style="display:none;">
	<g style="display:inline;">
		<g>
			<path style="fill:#407BFF;" d="M457.143,74.564c-20.632-24.924-47.325-39.75-76.947-32.118
				c-29.621,7.632-59.145,21.17-89.342,16.967c-19.289-2.685-37.107-12.449-55.379-19.861
				c-27.194-11.031-56.034-16.991-84.952-17.555c-26.451-0.516-53.748,3.774-76.43,18.845
				C43.744,61.006,25.065,98.92,20.245,137.898c-4.82,38.979,2.956,78.859,16.27,115.367c9.115,24.994,21.091,51.355,15.479,77.553
				c-2.997,13.99-10.893,26.565-11.859,40.911c-1.064,15.789,6.734,31.12,17.524,41.488c10.79,10.368,24.288,16.516,37.742,21.747
				c43.938,17.083,90.003,26.205,135.982,34.113c39.328,6.764,79.429,12.692,118.747,6.092c39.319-6.6,78.353-27.413,100.326-64.223
				c18.382-30.793,21.226-69.273,25.368-105.978C494.862,136.274,457.143,74.564,457.143,74.564z"/>
		</g>
		<g style="opacity:0.9;">
			<path style="fill:#FFFFFF;" d="M457.143,74.564c-20.632-24.924-47.325-39.75-76.947-32.118
				c-29.621,7.632-59.145,21.17-89.342,16.967c-19.289-2.685-37.107-12.449-55.379-19.861
				c-27.194-11.031-56.034-16.991-84.952-17.555c-26.451-0.516-53.748,3.774-76.43,18.845
				C43.744,61.006,25.065,98.92,20.245,137.898c-4.82,38.979,2.956,78.859,16.27,115.367c9.115,24.994,21.091,51.355,15.479,77.553
				c-2.997,13.99-10.893,26.565-11.859,40.911c-1.064,15.789,6.734,31.12,17.524,41.488c10.79,10.368,24.288,16.516,37.742,21.747
				c43.938,17.083,90.003,26.205,135.982,34.113c39.328,6.764,79.429,12.692,118.747,6.092c39.319-6.6,78.353-27.413,100.326-64.223
				c18.382-30.793,21.226-69.273,25.368-105.978C494.862,136.274,457.143,74.564,457.143,74.564z"/>
		</g>
	</g>
</g>
<g id="Angel_Shaped_1">
	<g>
		<g>
			<path style="fill:#E0E0E0;" d="M250.635,168.398c20.862-67.624-6.036-102.174-6.036-102.174l-82.149,38.088
				c0,0,10.408-12.181,8.666-23.613c-2.357-15.511-18.244-21.821-30.973-22.742c-0.463-0.042-0.935-0.061-1.384-0.083l-0.678,0.085
				c-0.43,0.132-0.882,0.268-1.321,0.423c-12.103,4.049-25.929,14.103-24.364,29.714c1.148,11.507,14.252,20.726,14.252,20.726
				l-89.03-16.522c0,0-17.487,40.142,19.496,100.478c10.789,17.621,55.272-37.897,55.272-37.897s13.954,45.479,6.332,87.939
				c-16.612,92.532-33.176,132.691-36.956,141.083c-0.52,1.154-0.017,2.499,1.131,3.034c3.226,1.501,11.729,3.922,33.893,5.3
				c22.514,1.4,41.539-2.105,44.505-4.367l2.279-128.65l0.1-0.874l0.314,0.822l34.117,124.065
				c3.434,1.455,22.734,0.133,44.197-6.808c21.13-6.833,28.766-11.287,31.52-13.541c0.979-0.802,1.133-2.23,0.344-3.219
				c-5.743-7.192-31.751-41.989-70.794-127.509c-17.916-39.243-15.678-86.762-15.678-86.762S244.554,188.145,250.635,168.398z"/>
		</g>
		<g>
			<path style="fill:#263238;" d="M140.143,57.957c-0.464-0.042-0.935-0.061-1.384-0.083l-0.678,0.085
				c-0.43,0.132-0.882,0.268-1.321,0.423c-12.103,4.049-25.929,14.103-24.364,29.714c1.148,11.507,14.252,20.726,14.252,20.726
				l-89.03-16.522c0,0-17.487,40.142,19.496,100.478c1.477,2.413,3.589,3.455,6.128,3.455c1.329,0,2.778-0.293,4.315-0.818
				c-4.315,0.818-29.71-37.541-29.355-74.958c0.077-8.161,0.844-14.643,1.722-19.128c0.402-2.051,2.396-3.381,4.451-3l81.415,15.109
				l8.299,1.54c-0.478-1.757-0.801-3.552-0.927-5.357c-0.395-0.921-0.777-1.842-1.149-2.764l-2.665-1.875
				c-3.156-2.22-11.515-9.666-12.282-17.355c-1.267-12.645,8.564-29.754,42.564-23.699
				C153.753,60.251,146.549,58.421,140.143,57.957z"/>
			<path style="fill:#263238;" d="M240.384,68.179l-77.425,35.898c-1.231,1.053-2.491,2.059-3.752,3.021
				c-1.264,1.789-2.414,3.657-3.457,5.496l8.675-4.022l73.972-34.297c2.554-1.184,5.633-0.081,6.833,2.466
				c1.911,4.055,4.1,9.705,5.787,16.905c3.498,14.931,5.493,39.779-4.869,73.371c-0.166,0.539-0.367,1.159-1.264,1.54
				c-1.044,1.739-2.165,3.408-3.379,4.997c0.354,0.022,0.716,0.055,1.055,0.055c4.005,0,6.934-1.505,8.075-5.21
				c16.668-54.031,2.848-86.948-3.381-97.998C245.889,67.98,242.905,67.01,240.384,68.179z"/>
			<path style="fill:#263238;" d="M88.896,384.009c-0.7-0.179-1.312-0.352-1.83-0.513c5.652-13.241,20.882-54.107,36.273-139.846
				c7.735-43.084-5.881-88.245-6.464-90.146l-2.563-8.356c-0.738,2.497-1.536,4.988-2.457,7.428
				c-0.093,1.174-0.235,2.332-0.424,3.478c0.615-0.747,0.957-1.174,0.957-1.174s13.954,45.479,6.332,87.939
				c-16.611,92.532-33.176,132.691-36.956,141.083c-0.52,1.154-0.016,2.499,1.132,3.034c0.97,0.451,2.421,0.985,4.572,1.549
				C87.816,387.004,88.318,385.502,88.896,384.009z"/>
			<path style="fill:#263238;" d="M271.132,360.112c-3.384-7.064-64.151-120.04-67.764-127.955
				c-16.659-36.491-15.893-80.129-15.703-86.072c-1.877-2.646-3.365-5.519-4.298-8.684l-0.366,7.773
				c-0.089,1.903-1.906,45.226,13.921,83.871C202.228,237.855,254.318,350.162,271.132,360.112z"/>
		</g>
		<g style="opacity:0.7;">
			<path style="fill:#FFFFFF;" d="M140.143,57.957c-0.464-0.042-0.935-0.061-1.384-0.083l-0.678,0.085
				c-0.43,0.132-0.882,0.268-1.321,0.423c-12.103,4.049-25.929,14.103-24.364,29.714c1.148,11.507,14.252,20.726,14.252,20.726
				l-89.03-16.522c0,0-17.487,40.142,19.496,100.478c1.477,2.413,3.589,3.455,6.128,3.455c1.329,0,2.778-0.293,4.315-0.818
				c-4.315,0.818-29.71-37.541-29.355-74.958c0.077-8.161,0.844-14.643,1.722-19.128c0.402-2.051,2.396-3.381,4.451-3l81.415,15.109
				l8.299,1.54c-0.478-1.757-0.801-3.552-0.927-5.357c-0.395-0.921-0.777-1.842-1.149-2.764l-2.665-1.875
				c-3.156-2.22-11.515-9.666-12.282-17.355c-1.267-12.645,8.564-29.754,42.564-23.699
				C153.753,60.251,146.549,58.421,140.143,57.957z"/>
			<path style="fill:#FFFFFF;" d="M240.482,68.133l-77.523,35.943c-1.231,1.053-2.491,2.059-3.752,3.021
				c-1.264,1.789-2.414,3.657-3.457,5.496l8.675-4.022l73.972-34.297c2.554-1.184,5.633-0.081,6.833,2.466
				c1.911,4.055,4.1,9.705,5.787,16.905c3.498,14.931,5.493,39.779-4.869,73.371c-0.166,0.539-0.367,1.159-1.264,1.54
				c-1.044,1.739-2.165,3.408-3.379,4.997c0.354,0.022,0.716,0.055,1.055,0.055c4.005,0,6.934-1.505,8.075-5.21
				c16.715-54.181,2.771-87.131-3.433-98.09C245.863,67.944,242.947,66.99,240.482,68.133z"/>
			<path style="fill:#FFFFFF;" d="M88.896,384.009c-0.7-0.179-1.312-0.352-1.83-0.513c5.652-13.241,20.882-54.107,36.273-139.846
				c7.735-43.084-5.881-88.245-6.464-90.146l-2.563-8.356c-0.738,2.497-1.536,4.988-2.457,7.428
				c-0.093,1.174-0.235,2.332-0.424,3.478c0.615-0.747,0.957-1.174,0.957-1.174s13.954,45.479,6.332,87.939
				c-16.611,92.532-33.176,132.691-36.956,141.083c-0.52,1.154-0.016,2.499,1.132,3.034c0.97,0.451,2.421,0.985,4.572,1.549
				C87.816,387.004,88.318,385.502,88.896,384.009z"/>
			<path style="fill:#FFFFFF;" d="M271.132,360.112c-3.384-7.064-64.151-120.04-67.764-127.955
				c-16.659-36.491-15.893-80.129-15.703-86.072c-1.877-2.646-3.365-5.519-4.298-8.684l-0.366,7.773
				c-0.089,1.903-1.906,45.226,13.921,83.871C202.228,237.855,254.318,350.162,271.132,360.112z"/>
		</g>
	</g>
</g>
<g id="Character_1_1_">
	<g>
		<g>
			<path style="fill:#407BFF;" d="M159.161,220.665c-6.106,20.521-28.801,108.35-36.389,137.235c0,0-12.969,1.075-12.883-1.259
				c0.784-24.9,7.833-80.506,7.833-80.506c0.785-4.768,4.368-44.689,9.949-67.523c7.323-3.235,18.216-5.445,25.941-7.536
				C158.803,220.755,157.691,214.672,159.161,220.665z"/>
			<path style="opacity:0.7;" d="M159.161,220.665c-6.106,20.521-28.801,108.35-36.389,137.235c0,0-12.969,1.075-12.883-1.259
				c0.784-24.9,7.833-80.506,7.833-80.506c0.785-4.768,4.368-44.689,9.949-67.523c7.323-3.235,18.216-5.445,25.941-7.536
				C158.803,220.755,157.691,214.672,159.161,220.665z"/>
			<g>
				<g>
					<path style="fill:#407BFF;" d="M120.42,366.567l-0.725,1.462c0.04-0.217,0.111-0.502,0.211-0.85
						C120.118,367.02,120.296,366.817,120.42,366.567z"/>
				</g>
				<path style="fill:#407BFF;" d="M108.183,367.697c-3.62,6.657-10.519,12.077-17.976,13.425c-1.802-0.988-4.54-1.077-6.082,0.283
					c-1.542,1.359-2.109,3.716-1.354,5.628c21.237,4.428,35.558,4.508,35.558,4.508c1.086-10.816,2.54-21.062,4.726-31.71
					c-4.167-2.607-9.012-3.568-13.54-1.654C108.903,361.218,109.666,364.971,108.183,367.697z"/>
			</g>
			<g>
				<g>
					<polygon style="fill:#407BFF;" points="128.302,358.443 125.024,363.906 121.247,363.622 109.843,362.758 105.049,362.39 
						106.518,356.317 109.888,356.641 122.771,357.9 					"/>
				</g>
				<g style="opacity:0.5;">
					<polygon style="fill:#407BFF;" points="128.302,358.443 125.024,363.906 121.247,363.622 109.843,362.758 105.049,362.39 
						106.518,356.317 109.888,356.641 122.771,357.9 					"/>
				</g>
				<g style="opacity:0.5;">
					<g>
						<polygon style="fill:#FFFFFF;" points="128.302,358.443 125.024,363.906 121.247,363.622 109.843,362.758 105.049,362.39 
							106.518,356.317 109.888,356.641 122.771,357.9 						"/>
					</g>
					<g style="opacity:0.5;">
						<polygon style="fill:#FFFFFF;" points="128.302,358.443 125.024,363.906 121.247,363.622 109.843,362.758 105.049,362.39 
							106.518,356.317 109.888,356.641 122.771,357.9 						"/>
					</g>
				</g>
			</g>
			<g>
				<path style="fill:#FFC0BA;" d="M58.667,148.916c-2.073,2.518-3.736,4.61-6.635,4.746c-2.401,0.113-4.702,1.893-7.018,0.755
					c-2.66-1.307-4.608-5.122-4.488-8.787c-0.213,0.135,0.18,0.251-0.033,0.386c2.14-1.766,5.445-3.236,7.986-3.762
					c2.977,0.137,5.955,0.273,8.932,0.41C58.891,144.268,59.977,147.324,58.667,148.916z"/>
				<path style="fill:#FFC0BA;" d="M237.229,125.779c2.632,1.925,4.763,3.539,7.605,2.952c2.354-0.486,5.025,0.668,6.986-1.009
					c2.253-1.926,3.194-6.104,2.168-9.626c0.24,0.078-0.112,0.288,0.128,0.366c-2.511-1.18-6.078-1.785-8.669-1.664
					c-2.85,0.871-5.701,1.741-8.551,2.612C235.859,121.332,235.565,124.563,237.229,125.779z"/>
				<g>
					<path style="fill:#407BFF;" d="M231.386,352.806c0.673,0.285,1.528,0.203,2.259,0.018c2.924-0.74,5.356-2.767,7.214-5.377
						c-3.67-18.176-29.372-83.12-29.372-83.122c-1.946-4.431-15.044-38.972-26.115-59.699c-7.897-1.324-19.264-4.006-27.269-4.121
						c-0.147,20.359-0.579,14.188-0.521,20.357C170.382,242.227,227.522,346.238,231.386,352.806z"/>
					<path style="opacity:0.7;" d="M231.386,352.806c0.673,0.285,1.528,0.203,2.259,0.018c2.924-0.74,5.356-2.767,7.214-5.377
						c-3.67-18.176-29.372-83.12-29.372-83.122c-1.946-4.431-15.044-38.972-26.115-59.699c-7.897-1.324-19.264-4.006-27.269-4.121
						c-0.147,20.359-0.579,14.188-0.521,20.357C170.382,242.227,227.522,346.238,231.386,352.806z"/>
					<g>
						<g>
							<path style="fill:#407BFF;" d="M232.306,352.471l1.065,1.236c-0.092-0.2-0.232-0.459-0.415-0.771
								C232.712,352.835,232.489,352.683,232.306,352.471z"/>
						</g>
						<path style="fill:#407BFF;" d="M244.441,350.53c5.159,5.551,13.186,9.091,20.744,8.547c1.501-1.404,4.132-2.169,5.962-1.234
							c1.831,0.934,2.965,3.077,2.708,5.116c-19.475,9.557-33.329,13.186-33.329,13.186c-3.735-10.208-7.685-19.773-12.443-29.547
							c3.39-3.559,7.846-5.691,12.706-4.96C242.137,344.433,242.329,348.258,244.441,350.53z"/>
					</g>
					<g>
						<polygon style="fill:#407BFF;" points="227.185,351.037 246.159,344.617 243.232,339.092 222.659,346.555 						"/>
					</g>
					<g style="opacity:0.5;">
						<polygon style="fill:#FFFFFF;" points="227.185,351.037 246.159,344.617 243.232,339.092 222.659,346.555 						"/>
					</g>
					<path style="opacity:0.2;enable-background:new    ;" d="M152.9,241.439c0.39-0.999,5.113-33.037,5.113-33.037l0.967,14.822
						l-5.855,19.483"/>
				</g>
				<path style="fill:#407BFF;" d="M127.636,212.54c0,0-0.051-23.423,1.293-24.463c1.344-1.04,50.338-6.342,50.338-6.342
					l6.336,24.325l-25.781,13.587L127.636,212.54z"/>
				<path style="opacity:0.7;" d="M127.636,212.54c0,0-0.051-23.423,1.293-24.463c1.344-1.04,50.338-6.342,50.338-6.342
					l6.336,24.325l-25.781,13.587L127.636,212.54z"/>
				<path style="fill:#407BFF;" d="M145.911,117.861c3.394,25.904,6.789,51.809,10.183,77.713
					c12.93-0.898,25.301-4.038,37.484-8.463c0,0-4.626-45.357-14.424-65.838c-1.803-3.769-4.208-8.009-6.25-11.653
					c-6.889-0.923-13.384-2.237-20.273-3.16c-2.589-0.347-4.98,2.078-6.17,4.403C145.27,113.188,145.572,115.271,145.911,117.861z"
					/>
				<g>
					<path style="fill:#407BFF;" d="M162.417,107.752c25.258,5.159,50.934,8.27,76.693,9.293c0.963,3.335,0.865,6.353-0.164,9.668
						c-1.994,6.429-11.856,6.537-18.511,7.547c-9.199,1.395-18.434,2.55-27.693,3.464c-5.493,0.542-11.156-2.779-16.552-3.939
						c-5.024-1.079-9.101-5.546-11.234-10.22C162.822,118.891,162.97,112.86,162.417,107.752z"/>
					<path style="opacity:0.2;" d="M162.417,107.752c25.258,5.159,50.934,8.27,76.693,9.293c0.963,3.335,0.865,6.353-0.164,9.668
						c-1.994,6.429-11.856,6.537-18.511,7.547c-9.199,1.395-18.434,2.55-27.693,3.464c-5.493,0.542-11.156-2.779-16.552-3.939
						c-5.024-1.079-9.101-5.546-11.234-10.22C162.822,118.891,162.97,112.86,162.417,107.752z"/>
				</g>
				<path style="fill:#407BFF;" d="M146.7,117.675c3.137,25.937,6.274,51.874,9.41,77.81c-12.749,2.337-25.512,2.363-38.412,1.099
					c0,0-6.768-45.087-2.357-67.358c0.812-4.098,2.09-8.802,3.164-12.84c6.444-2.603,12.411-5.487,18.855-8.089
					c2.422-0.978,5.339,0.777,7.07,2.735C146.162,112.989,146.386,115.081,146.7,117.675z"/>
				<polygon style="opacity:0.2;enable-background:new    ;" points="147.821,129.974 156.11,195.485 157.98,195.427 
					149.895,129.713 				"/>
				<g>
					<g>
						<path style="fill:#263238;" d="M126.065,91.309c-0.356,2.266-1.954,4.14-3.704,5.622c-1.75,1.482-3.725,2.715-5.273,4.408
							c-2.652,2.9-3.822,7.091-3.053,10.945c3.951,0.184,8.086-0.378,11.641-2.114c-1.079-1.875-0.922-4.389,0.382-6.116
							c-0.267,1.971,0.254,4.225,1.397,5.852c0.882-0.376,1.996-0.624,2.878-1c-0.334-1.13-0.255-2.377,0.198-3.464
							c0.025,0.125,0.051,0.251,0.076,0.376c0.171,0.844,0.228,1.726,0.977,2.15c0.749,0.424,1.671,0.451,2.509,0.258
							c0.839-0.193,1.614-0.59,2.38-0.983c-0.749-0.778-0.508-1.543-0.573-2.622c0.352,1.02,1.337,1.829,2.391,2.058
							c3.377-1.163,6.916-1.804,10.453-2.302c-0.007-0.688,0.158-1.046,0.151-1.734c0.023,0.111,0.046,0.221,0.068,0.332
							c0.992-0.008,1.759,1.434,2.749,1.5c0.444,0.03,0.872-0.149,1.281-0.324c1.622-0.695,3.243-1.391,4.865-2.086
							c-1.858-0.793-2.858-2.868-3.552-4.765c-0.694-1.897-0.909-3.929-1.273-5.916c-0.364-1.987-0.912-4.006-2.151-5.602
							c-2.823-3.637-8.779-3.308-13.246-2.191C133.17,84.708,126.78,86.76,126.065,91.309z"/>
						<path style="fill:#FFC0BA;" d="M135.358,92.725c1.947,5.193,4.309,12.895,1.146,17.113c0,0,0.82,3.984,11.178,7.257
							c4.871,1.539,9.392-3.413,7.232-8.042c-0.671-1.437-1.626-2.016-1.626-2.016c-6.261-0.427-6.503-2.896-6.162-7.253
							L135.358,92.725z"/>
						<path style="opacity:0.2;enable-background:new    ;" d="M140.129,95.562l6.931,4.231c-0.098,1.014-0.105,2.035-0.02,3.05
							c-2.361,0.059-6.293-1.29-7.202-3.704C139.636,97.942,139.736,96.712,140.129,95.562z"/>
						<path style="fill:#263238;" d="M151.719,79.78c0.43,1.853,0.197,3.799-0.246,5.648c-0.062-0.999-0.638-1.884-1.195-2.715
							c-1.1-1.642-2.005-3.432-3.299-4.925c-5.653-6.523-0.284-4.49,1.704-3.258C150.282,75.519,151.296,77.958,151.719,79.78z"/>
						<path style="fill:#FFC0BA;" d="M127.717,87.594c3.575,7.742,4.927,11.083,10.515,13.584
							c8.411,3.772,17.132-2.324,15.945-10.968c-1.084-7.786-6.771-19.175-15.751-19.251c-6.419-0.121-11.721,4.985-11.842,11.405
							C126.55,84.172,126.938,85.963,127.717,87.594z"/>
						<path style="fill:#263238;" d="M141.159,84.739c0.258,0.642,0.805,1.034,1.223,0.876c0.418-0.158,0.561-0.828,0.315-1.472
							c-0.246-0.644-0.805-1.034-1.223-0.876C141.056,83.424,140.954,84.113,141.159,84.739z"/>
						<path style="fill:#263238;" d="M148.454,81.91c0.26,0.655,0.805,1.034,1.223,0.876c0.418-0.158,0.561-0.828,0.314-1.472
							c-0.246-0.644-0.805-1.034-1.221-0.864C148.355,80.62,148.208,81.266,148.454,81.91z"/>
						<path style="fill:#E8673F;" d="M146.661,83.956c1.153,1.247,2.472,2.331,3.919,3.221c-0.488,0.732-1.268,1.217-2.139,1.33
							L146.661,83.956z"/>
						<path style="fill:#263238;" d="M137.656,84.417c0.175-0.034,0.306-0.18,0.321-0.357c0.3-1.305,1.13-2.426,2.292-3.093
							c0.198-0.11,0.27-0.36,0.161-0.559c-0.107-0.194-0.351-0.264-0.544-0.157c-0.004,0.002-0.009,0.005-0.013,0.008
							c-1.402,0.791-2.39,2.154-2.706,3.732c-0.02,0.22,0.143,0.415,0.363,0.434c0,0,0,0,0.001,0
							C137.572,84.435,137.616,84.432,137.656,84.417z"/>
						<path style="fill:#263238;" d="M149.33,77.694c0.145-0.033,0.262-0.139,0.309-0.28c0.067-0.215-0.05-0.443-0.263-0.515
							c-1.25-0.455-2.644-0.258-3.718,0.526c-0.172,0.128-0.207,0.371-0.079,0.543c0.006,0.008,0.013,0.017,0.02,0.025
							c0.138,0.173,0.39,0.201,0.563,0.062c0.002-0.001,0.003-0.003,0.005-0.004l0,0c0.859-0.581,1.943-0.718,2.92-0.368
							C149.165,77.711,149.25,77.715,149.33,77.694z"/>
						<path style="fill:#263238;" d="M132.384,91.557c-0.46-0.655-1.164-1.099-1.885-1.447c-0.406-0.196-2.209-0.07-2.335,0.363
							c-0.074,0.255-0.024,0.527,0.026,0.787c0.271,1.397,0.543,2.795,0.814,4.193c-1.144-0.877-1.973-2.158-2.304-3.561
							c-0.331-1.403-0.162-2.919,0.47-4.215c0.136-0.279,0.294-0.55,0.501-0.781C130.506,83.735,132.267,89.662,132.384,91.557z"/>
						<path style="fill:#FFC0BA;" d="M127.938,94.534c1.052,1.225,2.545,1.986,4.155,2.116c2.141,0.141,2.784-1.881,1.826-3.688
							c-0.876-1.618-3.038-3.646-5.02-2.975c-1.424,0.532-2.147,2.118-1.615,3.542C127.426,93.908,127.649,94.251,127.938,94.534z"
							/>
						<g>
							<path style="fill:#263238;" d="M149.215,91.17c0,0-2.239,0.006-8.072,1.983c1.241,2.327,2.97,3.955,5.962,2.942
								c1.539-0.298,2.514-2.34,2.177-4.561C149.264,91.411,149.241,91.29,149.215,91.17z"/>
							<path style="fill:#DE5753;" d="M145.277,94.521c1.129-0.48,2.366-0.429,3.534,0.149c-0.439,0.714-1.033,1.2-1.702,1.393
								c-1.126,0.484-2.361,0.432-3.526-0.149C144.014,95.192,144.608,94.704,145.277,94.521z"/>
							<path style="fill:#FAFAFA;" d="M148.934,91.191c0.021,0.677-0.224,1.284-0.636,1.574c-1.735,0.574-3.512,0.939-5.313,1.093
								c-0.57,0.109-1.164-0.198-1.586-0.818C143.857,92.143,146.377,91.525,148.934,91.191z"/>
						</g>
					</g>
					<g>
						<path style="fill:#263238;" d="M149.014,80.32c0.519-0.066,0.943-0.574,0.915-1.097c0.228,0.644-0.08,1.42-0.738,1.605
							C149.125,80.682,149.081,80.465,149.014,80.32z"/>
						<path style="fill:#263238;" d="M141.728,83.193c0.519-0.066,0.943-0.574,0.915-1.097c0.228,0.644-0.08,1.42-0.738,1.605
							C141.838,83.555,141.795,83.338,141.728,83.193z"/>
					</g>
					<g>
						<g>
							<g>
								<path style="fill:#407BFF;" d="M123.691,88.562c0.893,0.69,1.635,1.328,1.899,2.158c0.121,0.366,0.729,0.429,1.172,0.232
									c0.441-0.204,0.747-0.572,1.041-0.929c3.072-3.766,6.391-7.411,9.933-10.905c1.442-1.425,2.959-2.85,4.821-3.842
									c1.863-0.985,4.329-1.35,6.127-0.748c-0.169-1.392-0.664-2.699-1.426-3.862c-4.774,0.179-9.557,1.935-13.271,4.873
									c-3.606,2.852-6.119,6.659-8.565,10.384c-0.515,0.782-1.028,1.571-1.543,2.353
									C123.816,88.371,123.759,88.458,123.691,88.562z"/>
							</g>
							<path style="opacity:0.8;fill:#FFFFFF;" d="M123.691,88.562c0.893,0.69,1.635,1.328,1.899,2.158
								c0.121,0.366,0.729,0.429,1.172,0.232c0.441-0.204,0.747-0.572,1.041-0.929c3.072-3.766,6.391-7.411,9.933-10.905
								c1.442-1.425,2.959-2.85,4.821-3.842c1.863-0.985,4.329-1.35,6.127-0.748c-0.169-1.392-0.664-2.699-1.426-3.862
								c-4.774,0.179-9.557,1.935-13.271,4.873c-3.606,2.852-6.119,6.659-8.565,10.384c-0.515,0.782-1.028,1.571-1.543,2.353
								C123.816,88.371,123.759,88.458,123.691,88.562z"/>
						</g>
						<g>
							<g>
								<path style="fill:#407BFF;" d="M116.681,77.803c0.643,0.096,1.222,0.035,1.814-0.32c-0.063,0.366,0.016,0.729,0.223,1.019
									c0.904-0.67,0.988-1.187,1.145-1.651c0,0,0.77,0.768,1.169,0.459c0.102-0.079,0.526-0.905,0.232-1.661
									c0.588,0.378,1.646,0.117,1.646,0.117s0.456-1.131-0.083-1.37c0.505-0.034,1.023-0.216,1.444-0.507
									c-0.137-0.313-0.372-0.565-0.509-0.878c0.425-0.017,0.763-0.137,1.142-0.353c-0.224-0.328-0.292-0.534-0.707-0.685
									c0.583-0.088,0.81-0.033,1.433-0.325c-0.001-0.381-0.771-0.826-1.214-0.678c0,0,0.184-0.106,0.371-0.35
									c0.233-0.303,0.324-0.709,0.324-0.709c-0.325-0.272-1.061-0.026-1.428,0.122c0.539-0.242-0.075-1.132-0.075-1.132
									s-1.154,0.136-1.593,0.507c0.091-0.352-0.536-1.087-0.536-1.087s-0.766,0.312-0.978,0.639
									c0.002-0.352-0.437-0.613-0.668-0.877c-0.423,0.255-0.535,0.582-0.958,0.837c-0.119-0.442-0.686-0.476-1.182-0.499
									c-0.557,0.561-0.272,1.303-0.272,1.303c-0.472-0.115-1.106,0.048-1.542,0.34c0.048,0.459,0.563,1.096,0.563,1.096
									c-1.252,0.07-1.164,0.291-1.414,0.571c0.33,0.436,0.276,0.695,1.066,0.8c-0.863,0.205-0.904,0.652-1.566,0.895
									c0.534,0.3,0.81,0.807,1.374,0.897c-0.618,0.241-0.967,0.424-1.171,1.055c0.488,0.29,0.933,0.338,1.374,0.265
									c-0.555,0.207-0.537,0.637-0.7,1.122c0.702-0.21,1.488-0.14,1.488-0.14S117.139,77.548,116.681,77.803z"/>
							</g>
							<g style="opacity:0.8;">
								<path style="fill:#FFFFFF;" d="M116.681,77.803c0.643,0.096,1.222,0.035,1.814-0.32c-0.063,0.366,0.016,0.729,0.223,1.019
									c0.904-0.67,0.988-1.187,1.145-1.651c0,0,0.77,0.768,1.169,0.459c0.102-0.079,0.526-0.905,0.232-1.661
									c0.588,0.378,1.646,0.117,1.646,0.117s0.456-1.131-0.083-1.37c0.505-0.034,1.023-0.216,1.444-0.507
									c-0.137-0.313-0.372-0.565-0.509-0.878c0.425-0.017,0.763-0.137,1.142-0.353c-0.224-0.328-0.292-0.534-0.707-0.685
									c0.583-0.088,0.81-0.033,1.433-0.325c-0.001-0.381-0.771-0.826-1.214-0.678c0,0,0.184-0.106,0.371-0.35
									c0.233-0.303,0.324-0.709,0.324-0.709c-0.325-0.272-1.061-0.026-1.428,0.122c0.539-0.242-0.075-1.132-0.075-1.132
									s-1.154,0.136-1.593,0.507c0.091-0.352-0.536-1.087-0.536-1.087s-0.766,0.312-0.978,0.639
									c0.002-0.352-0.437-0.613-0.668-0.877c-0.423,0.255-0.535,0.582-0.958,0.837c-0.119-0.442-0.686-0.476-1.182-0.499
									c-0.557,0.561-0.272,1.303-0.272,1.303c-0.472-0.115-1.106,0.048-1.542,0.34c0.048,0.459,0.563,1.096,0.563,1.096
									c-1.252,0.07-1.164,0.291-1.414,0.571c0.33,0.436,0.276,0.695,1.066,0.8c-0.863,0.205-0.904,0.652-1.566,0.895
									c0.534,0.3,0.81,0.807,1.374,0.897c-0.618,0.241-0.967,0.424-1.171,1.055c0.488,0.29,0.933,0.338,1.374,0.265
									c-0.555,0.207-0.537,0.637-0.7,1.122c0.702-0.21,1.488-0.14,1.488-0.14S117.139,77.548,116.681,77.803z"/>
							</g>
						</g>
						<path style="fill:#407BFF;" d="M123.691,88.562c0.068-0.105,0.126-0.191,0.189-0.286c0.515-0.782,1.028-1.571,1.543-2.353
							c2.446-3.725,4.96-7.533,8.565-10.384c3.713-2.938,8.497-4.694,13.271-4.873c-1.314-2.027-3.435-3.623-6.033-4.426
							c-4.104-1.273-9.294-0.563-13.368,1.832c-2.524,1.484-5.256,3.52-7.017,5.651c-0.581,0.704-1.121,1.432-1.467,2.215
							c-0.313,0.727-0.47,1.475-0.567,2.219C117.944,84.687,121.353,86.782,123.691,88.562z"/>
					</g>
				</g>
				<g>
					<g>
						<path style="opacity:0.5;fill:#FFFFFF;" d="M182.455,166.652c0,0-9.968-3.499-15.597-11.201
							c-5.63-7.702,0.16,27.044,0.16,27.044l17.161-2.162L182.455,166.652z"/>
					</g>
					<g>
						<path style="opacity:0.5;fill:#FFFFFF;" d="M123.223,174.027c0,0,8.789-5.862,12.332-14.72
							c3.543-8.858,6.552,26.239,6.552,26.239l-17.161,2.162L123.223,174.027z"/>
					</g>
					<path style="opacity:0.5;fill:none;stroke:#FFFFFF;stroke-miterlimit:10;" d="M185.366,189.754
						c-1.361-10.801-6.328-38.54-8.244-46.217c-0.416-1.667-0.764-3.367-0.679-5.083c0.262-5.273,7.64-5.07,8.252-3.464"/>
					<path style="opacity:0.5;fill:none;stroke:#FFFFFF;stroke-miterlimit:10;" d="M126.144,197.215
						c-1.361-10.801-3.44-38.991-3.487-46.904c-0.01-1.718-0.095-3.451-0.603-5.093c-1.562-5.043-7.995-0.555-8.189,1.151"/>
				</g>
				<g>
					<path style="fill:#407BFF;" d="M128.132,128.846c-0.905,5.052-3.751,10.393-8.345,12.681c-1.987,0.988-3.93,2.327-5.898,3.637
						c-0.124,0.083-0.258,0.167-0.381,0.26c-2.807,1.84-5.663,3.551-8.776,4.033c-7.924,1.211-15.86,2.244-23.808,3.089
						c-1.299,0.152-2.588,0.293-3.879,0.422c-6.608,0.665-16.028,2.947-19.665-2.505c-0.054-0.071-0.108-0.143-0.15-0.216
						c-1.52-2.49-2.364-4.93-2.525-7.714c-0.032-0.521-0.044-1.056-0.023-1.606c14.329-4.285,28.463-9.239,42.324-14.85
						c4.923-1.983,9.811-4.062,14.656-6.215c2.254-0.999,4.495-2.007,6.732-3.049c2.745-1.262,5.476-2.555,8.204-3.871
						c0.021-0.014,0.052-0.029,0.073-0.043C127.4,117.979,129.036,123.783,128.132,128.846z"/>
					<path style="opacity:0.2;" d="M128.132,128.846c-0.905,5.052-3.751,10.393-8.345,12.681c-1.987,0.988-3.93,2.327-5.898,3.637
						c-0.124,0.083-0.258,0.167-0.381,0.26c-2.807,1.84-5.663,3.551-8.776,4.033c-7.924,1.211-15.86,2.244-23.808,3.089
						c-1.299,0.152-2.588,0.293-3.879,0.422c-6.608,0.665-16.028,2.947-19.665-2.505c-0.054-0.071-0.108-0.143-0.15-0.216
						c-1.52-2.49-2.364-4.93-2.525-7.714c-0.032-0.521-0.044-1.056-0.023-1.606c11.939-3.571,23.742-7.605,35.363-12.108
						c2.335-0.886,4.655-1.804,6.961-2.743c4.923-1.983,9.811-4.062,14.656-6.215c2.254-0.999,4.495-2.007,6.732-3.049
						c2.745-1.262,5.476-2.555,8.204-3.871c0.021-0.014,0.052-0.029,0.073-0.043c0.019,0.154,0.051,0.317,0.072,0.482
						C127.501,118.334,129.011,123.942,128.132,128.846z"/>
				</g>
				<g>
					<g>
						<g>
							<path style="fill:#407BFF;" d="M153.555,103.975c-5.06,3.148-12.158-1.346-17.487,1.32c-3.559,1.78-4.954,6.048-6.009,9.885
								c-0.244,0.886-0.458,1.931,0.12,2.646c0.372,0.459,0.977,0.646,1.549,0.793c9.461,2.43,20.042-0.025,27.466-6.373
								c-1.672-2.614-2.966-5.47-3.828-8.45L153.555,103.975z"/>
						</g>
						<g style="opacity:0.4;">
							<path style="fill:#FFFFFF;" d="M153.555,103.975c-5.06,3.148-12.158-1.346-17.487,1.32c-3.559,1.78-4.954,6.048-6.009,9.885
								c-0.244,0.886-0.458,1.931,0.12,2.646c0.372,0.459,0.977,0.646,1.549,0.793c9.461,2.43,20.042-0.025,27.466-6.373
								c-1.672-2.614-2.966-5.47-3.828-8.45L153.555,103.975z"/>
						</g>
						<path style="fill:#407BFF;" d="M142.533,107.26c-2.341,9.914-3.301,17.238,5.288,22.714c7.493,4.777,17.07,2.93,25.904,3.893
							c8.834,0.963,18.363,3.068,23.98,9.953c1.636-3.391,10.06-8.72,11.697-12.111c-9.346-5.281-23.314-9.053-34.032-9.635
							c-5.246-0.285-8.697,2.363-17.409,2.613c-10.924,0.314-6.086-10.404-5.706-12.335c0.67-3.405,0.301-7.707-3.644-8.942
							C145.703,102.5,143.202,104.426,142.533,107.26z"/>
						<path style="opacity:0.5;fill:#FFFFFF;" d="M142.533,107.26c-2.341,9.914-3.301,17.238,5.288,22.714
							c7.493,4.777,17.07,2.93,25.904,3.893c8.834,0.963,18.363,3.068,23.98,9.953c1.636-3.391,10.06-8.72,11.697-12.111
							c-9.346-5.281-23.314-9.053-34.032-9.635c-5.246-0.285-8.697,2.363-17.409,2.613c-10.924,0.314-6.086-10.404-5.706-12.335
							c0.67-3.405,0.301-7.707-3.644-8.942C145.703,102.5,143.202,104.426,142.533,107.26z"/>
					</g>
					<g>
						<path style="fill:#407BFF;" d="M197.237,142.745c2.103,1.535,3.454,4.055,3.568,6.656c0.115,2.601-1.01,5.23-2.969,6.944
							c1.235,0.022,2.469,0.045,3.704,0.067c0.62-1.957,1.24-3.915,1.861-5.872c0.539,1.551,0.539,3.284-0.001,4.835
							c0.892,0.641,2.234-0.134,2.569-1.18c0.335-1.046-0.011-2.176-0.354-3.219c0.631,1.853,0.588,3.926-0.118,5.751
							c1.652,0.831,3.699-0.717,4.092-2.524c0.393-1.807-0.331-3.65-1.041-5.358c1.753,2.169,1.587,5.261,1.332,8.038
							c2.589-1.547,3.355-5.466,1.539-7.874c0.79,0.294,1.118,1.242,1.159,2.085c0.041,0.842-0.1,1.714,0.177,2.51
							c0.277,0.796,1.216,1.458,1.954,1.052c0.654-0.36,0.718-1.263,0.663-2.008c-0.154-2.096-0.594-4.171-1.305-6.148
							c0.679,1.958,1.359,3.916,2.038,5.874c1.039-3.058,0.936-6.49-0.285-9.48c0.527,1.659,1.054,3.318,1.58,4.977
							c1.76-3.644,0.144-8.038-2.142-11.377c-1.216-1.777-2.72-3.496-4.747-4.221c-2.8-1.001-6.01,0.167-8.204,2.174
							c-2.195,2.006-3.578,4.727-4.89,7.396C197.969,141.44,197.237,142.745,197.237,142.745z"/>
					</g>
					<g style="opacity:0.2;enable-background:new    ;">
						<path d="M197.237,142.745c2.103,1.535,3.454,4.055,3.568,6.656c0.115,2.601-1.01,5.23-2.969,6.944
							c1.235,0.022,2.469,0.045,3.704,0.067c0.62-1.957,1.24-3.915,1.861-5.872c0.539,1.551,0.539,3.284-0.001,4.835
							c0.892,0.641,2.234-0.134,2.569-1.18c0.335-1.046-0.011-2.176-0.354-3.219c0.631,1.853,0.588,3.926-0.118,5.751
							c1.652,0.831,3.699-0.717,4.092-2.524c0.393-1.807-0.331-3.65-1.041-5.358c1.753,2.169,1.587,5.261,1.332,8.038
							c2.589-1.547,3.355-5.466,1.539-7.874c0.79,0.294,1.118,1.242,1.159,2.085c0.041,0.842-0.1,1.714,0.177,2.51
							c0.277,0.796,1.216,1.458,1.954,1.052c0.654-0.36,0.718-1.263,0.663-2.008c-0.154-2.096-0.594-4.171-1.305-6.148
							c0.679,1.958,1.359,3.916,2.038,5.874c1.039-3.058,0.936-6.49-0.285-9.48c0.527,1.659,1.054,3.318,1.58,4.977
							c1.76-3.644,0.144-8.038-2.142-11.377c-1.216-1.777-2.72-3.496-4.747-4.221c-2.8-1.001-6.01,0.167-8.204,2.174
							c-2.195,2.006-3.578,4.727-4.89,7.396C197.969,141.44,197.237,142.745,197.237,142.745z"/>
					</g>
				</g>
			</g>
		</g>
		<g style="opacity:0.1;">
			<path style="fill:#FFC0BA;" d="M54.556,190.208c0.041,0.062,0.083,0.124,0.135,0.184
				C54.609,190.357,54.496,190.349,54.556,190.208z"/>
			<path style="fill:#FFC0BA;" d="M54.758,190.473c0.001,0.011,0.012,0.01,0.012,0.01c-0.009,0.012-0.007,0.034-0.016,0.047
				C54.762,190.506,54.759,190.484,54.758,190.473z"/>
			<path style="fill:#FFC0BA;" d="M54.758,190.473c-0.025-0.019-0.051-0.049-0.066-0.081
				C54.737,190.397,54.773,190.415,54.758,190.473z"/>
			<g style="opacity:0.2;">
				<path style="fill:#FFC0BA;" d="M70.963,184.052c-0.183,2.358-0.606,4.322-2.38,5.763c-1.864,1.52-2.652,4.311-5.196,4.777
					c-2.827,0.524-6.504-1.259-8.617-4.109c0.679-2.677,2.453-5.805,4.165-7.73c1.72-1.155,3.451-2.312,5.171-3.467
					c1.788,2.132,3.916,3.595,6.623,4.684C70.811,184.004,70.882,184.029,70.963,184.052z"/>
				<path style="fill:#407BFF;" d="M113.508,145.423c-1.285,3.547-2.587,7.13-5.086,9.645c-6.551,6.612-13.27,13.045-20.157,19.297
					c-4.922,4.474-11.133,11.926-17.302,9.687c-0.081-0.023-0.151-0.048-0.234-0.082c-2.706-1.089-4.835-2.553-6.623-4.684
					c-0.341-0.404-0.663-0.833-0.977-1.285c6.206-8.289,12.152-16.78,17.795-25.456c7.948-0.845,15.884-1.878,23.808-3.089
					C107.845,148.974,110.701,147.263,113.508,145.423z"/>
			</g>
		</g>
		<g style="opacity:0.1;">
			<path style="fill:#FFC0BA;" d="M51.538,96.814c-1.323,2.446-1.888,4.964-1.899,7.892c0,0.089,0,0.179,0.01,0.256
				c-2.258,0.698-4.228,1.024-6.233-0.086c-2.102-1.165-4.99-0.857-6.361-3.053c-1.523-2.422-1.254-6.489,0.62-9.529
				c2.737-0.356,6.295,0.134,8.719,1.013C48.104,94.476,49.826,95.645,51.538,96.814z"/>
			<path style="fill:#407BFF;" d="M128.345,109.436c-0.557,1.254-1.07,2.593-1.603,3.945c-0.021-0.165-0.053-0.329-0.072-0.482
				c-0.021,0.014-0.052,0.029-0.073,0.043c-2.727,1.316-5.458,2.609-8.204,3.871c-2.237,1.042-4.479,2.05-6.732,3.049
				c-4.845,2.152-9.733,4.231-14.656,6.215c-2.306,0.938-4.626,1.856-6.961,2.743c-8.427-3.575-16.759-7.373-24.984-11.387
				c-5.975-2.911-15.19-5.917-15.413-12.469c-0.01-0.077-0.01-0.166-0.01-0.256c0.011-2.928,0.576-5.446,1.899-7.892
				c0.254-0.468,0.531-0.927,0.83-1.389C77.254,102.132,102.691,106.826,128.345,109.436z"/>
		</g>
		<g style="opacity:0.1;">
			<path style="fill:#FFC0BA;" d="M251.202,164.316c-0.025,0.07-0.049,0.14-0.085,0.212
				C251.188,164.474,251.295,164.439,251.202,164.316z"/>
			<path style="fill:#FFC0BA;" d="M251.072,164.623c0.001,0.011-0.009,0.012-0.009,0.012c0.012,0.009,0.015,0.032,0.027,0.041
				C251.077,164.656,251.074,164.634,251.072,164.623z"/>
			<path style="fill:#FFC0BA;" d="M251.072,164.623c0.019-0.025,0.037-0.061,0.044-0.095
				C251.074,164.545,251.044,164.571,251.072,164.623z"/>
			<path style="fill:#FFC0BA;" d="M233.781,162.422c0.763,2.239,1.659,4.036,3.735,4.992c2.183,1.01,3.639,3.519,6.219,3.339
				c2.869-0.194,5.989-2.832,7.329-6.118c-1.322-2.425-3.816-5.016-5.952-6.456c-1.953-0.692-3.917-1.383-5.87-2.076
				c-1.203,2.509-2.902,4.454-5.254,6.181C233.916,162.338,233.854,162.38,233.781,162.422z"/>
			<path style="fill:#407BFF;" d="M182.984,135.553c2.124,3.118,4.275,6.265,7.319,8.082c7.987,4.781,16.091,9.346,24.314,13.694
				c5.878,3.114,13.743,8.792,19.164,5.093c0.073-0.043,0.135-0.084,0.206-0.138c2.352-1.726,4.05-3.672,5.254-6.181
				c0.23-0.476,0.436-0.971,0.628-1.487c-8.068-6.491-15.934-13.242-23.553-20.247c-7.909,1.153-15.853,2.12-23.83,2.913
				C189.351,137.589,186.16,136.639,182.984,135.553z"/>
		</g>
		<g style="opacity:0.1;">
			<path style="fill:#FFC0BA;" d="M243.271,65.274c-0.016-0.031-0.042-0.062-0.089-0.089
				C243.198,65.228,243.214,65.27,243.271,65.274z"/>
			<path style="fill:#FFC0BA;" d="M243.027,65.026c0.051,0.049,0.113,0.097,0.154,0.159
				C243.159,65.099,243.169,64.997,243.027,65.026z"/>
			<path style="fill:#FFC0BA;" d="M230.961,73.092c1.888,2.041,3.06,4.34,3.797,7.174c0.022,0.087,0.044,0.173,0.054,0.25
				c2.36,0.116,4.35-0.056,6.017-1.629c1.747-1.65,4.622-2.068,5.406-4.535c0.874-2.724-0.395-6.597-2.964-9.078
				c-2.74,0.334-6.065,1.691-8.195,3.144C233.708,69.976,232.329,71.535,230.961,73.092z"/>
			<path style="fill:#407BFF;" d="M159.684,104.371c0.851,1.077,1.679,2.246,2.532,3.424c-0.021-0.165-0.031-0.331-0.05-0.485
				c0.023,0.008,0.058,0.015,0.081,0.023c2.969,0.598,5.935,1.174,8.907,1.715c2.426,0.454,4.847,0.875,7.278,1.284
				c5.228,0.883,10.479,1.685,15.74,2.385c2.467,0.337,4.941,0.651,7.423,0.931c7.277-5.553,14.407-11.3,21.379-17.228
				c5.066-4.303,13.248-9.5,11.838-15.903c-0.01-0.077-0.032-0.163-0.054-0.25c-0.737-2.834-1.909-5.133-3.797-7.174
				c-0.362-0.39-0.744-0.767-1.149-1.14C207.367,84.622,183.89,95.479,159.684,104.371z"/>
		</g>
		<g style="opacity:0.1;">
			<path style="fill:#263238;" d="M159.981,217.978c-5.398,19.136-16.016,58.11-23.51,86.771
				c2.177,17.206,5.113,38.546,7.718,51.221l12.801-1.771C157.559,326.708,158.861,247.502,159.981,217.978z"/>
			<path style="fill:#407BFF;" d="M145.115,362.006c0.428,2.247,0.952,4.539,0.573,6.586c-1.368,7.233-5.482,13.951-10.876,16.798
				c-1.571-0.584-3.678-0.106-4.566,1.536c-0.888,1.642-0.829,4.059,0.146,5.768c17.096-0.065,29.913-4.115,29.913-4.115
				c-1.284-9.658-2.251-18.931-2.85-28.564L145.115,362.006z"/>
			<polygon style="fill:#407BFF;" points="144.189,355.97 140.838,356.434 140.822,362.692 145.115,362.006 157.454,360.016 
				160.596,359.508 162.512,353.435 156.99,354.199 			"/>
			<polygon style="opacity:0.5;fill:#FFFFFF;" points="144.189,355.97 140.838,356.434 140.822,362.692 145.115,362.006 
				157.454,360.016 160.596,359.508 162.512,353.435 156.99,354.199 			"/>
		</g>
		<g style="opacity:0.1;">
			<path style="fill:#263238;" d="M155.945,218.487c9.976,17.199,29.929,52.322,44.297,78.228
				c2.159,17.209,4.607,38.61,5.228,51.535l-12.84,1.459C185.261,323.218,164.354,246.81,155.945,218.487z"/>
			<path style="fill:#407BFF;" d="M206.071,354.326c0.142,2.283,0.204,4.633,1.079,6.522c3.119,6.667,8.77,12.155,14.703,13.576
				c1.377-0.955,3.536-1.015,4.804,0.356c1.267,1.371,1.81,3.727,1.289,5.624c-16.577,4.178-29.999,3.433-29.999,3.433
				c-1.152-9.674-2.515-18.898-4.324-28.378L206.071,354.326z"/>
			<polygon style="fill:#407BFF;" points="205.471,348.25 208.832,347.868 210.4,353.926 206.071,354.326 193.623,355.459 
				190.453,355.746 187.091,350.339 192.63,349.709 			"/>
			<polygon style="opacity:0.5;fill:#FFFFFF;" points="205.471,348.25 208.832,347.868 210.4,353.926 206.071,354.326 
				193.623,355.459 190.453,355.746 187.091,350.339 192.63,349.709 			"/>
		</g>
	</g>
	<path style="fill:none;stroke:#407BFF;stroke-linecap:round;stroke-linejoin:round;stroke-miterlimit:10;" d="M59.251,171.504
		c3.451,5.353,7.459,10.343,11.986,14.841"/>
	<path style="fill:none;stroke:#407BFF;stroke-linecap:round;stroke-linejoin:round;stroke-miterlimit:10;" d="M59.251,171.504"/>
	<path style="fill:none;stroke:#407BFF;stroke-linecap:round;stroke-linejoin:round;stroke-miterlimit:10;" d="M56.384,166.748"/>
	<path style="fill:none;stroke:#407BFF;stroke-linecap:round;stroke-linejoin:round;stroke-miterlimit:10;" d="M52.672,159.411
		c1.13,2.499,2.369,4.948,3.713,7.337"/>
	<path style="fill:none;stroke:#407BFF;stroke-linecap:round;stroke-linejoin:round;stroke-miterlimit:10;" d="M44.229,119.541
		c-0.072,7.005,0.664,14.021,2.158,20.875"/>
	<path style="fill:none;stroke:#407BFF;stroke-linecap:round;stroke-linejoin:round;stroke-miterlimit:10;" d="M44.913,109.36
		c-0.255,2.036-0.438,4.081-0.551,6.129"/>
	<path style="fill:none;stroke:#407BFF;stroke-linecap:round;stroke-linejoin:round;stroke-miterlimit:10;" d="M63.468,156.951
		c1.804,3.87,3.908,7.6,6.296,11.141"/>
	<path style="fill:none;stroke:#407BFF;stroke-linecap:round;stroke-linejoin:round;stroke-miterlimit:10;" d="M55.688,119.871
		c-0.149,5.875,0.349,11.761,1.457,17.531"/>
	<path style="fill:none;stroke:#407BFF;stroke-linecap:round;stroke-linejoin:round;stroke-miterlimit:10;" d="M247.313,148.527
		c-1.775,5.544-4.081,10.917-6.918,16.014"/>
	<path style="fill:none;stroke:#407BFF;stroke-linecap:round;stroke-linejoin:round;stroke-miterlimit:10;" d="M250.207,136.951
		c-0.441,2.412-0.977,4.806-1.606,7.174"/>
	<path style="fill:none;stroke:#407BFF;stroke-linecap:round;stroke-linejoin:round;stroke-miterlimit:10;" d="M246.406,88.506
		c2.395,6.73,3.985,13.745,4.771,20.854"/>
	<path style="fill:none;stroke:#407BFF;stroke-linecap:round;stroke-linejoin:round;stroke-miterlimit:10;" d="M242.954,80.176
		c0.667,1.401,1.296,2.819,1.887,4.253"/>
	<path style="fill:none;stroke:#407BFF;stroke-linecap:round;stroke-linejoin:round;stroke-miterlimit:10;" d="M239.752,133.904
		c-0.661,4.301-1.661,8.549-2.999,12.69"/>
	<path style="fill:none;stroke:#407BFF;stroke-linecap:round;stroke-linejoin:round;stroke-miterlimit:10;" d="M236.916,96.361
		c1.703,5.389,2.834,10.955,3.394,16.578"/>
	<g>
		<path style="fill:none;stroke:#407BFF;stroke-linecap:round;stroke-linejoin:round;stroke-miterlimit:10;" d="M153.874,375.239
			c1.815-0.762,3.566-1.642,5.229-2.637"/>
		<path style="fill:none;stroke:#407BFF;stroke-linecap:round;stroke-linejoin:round;stroke-miterlimit:10;" d="M122.775,376.854
			c8.861,2.858,19.211,2.565,28.323-0.559"/>
		<path style="fill:none;stroke:#407BFF;stroke-linecap:round;stroke-linejoin:round;stroke-miterlimit:10;" d="M142.359,370.074
			c1.533-0.395,3.038-0.877,4.503-1.446"/>
		<path style="fill:none;stroke:#407BFF;stroke-linecap:round;stroke-linejoin:round;stroke-miterlimit:10;" d="M126.055,370.95
			c3.966,0.602,8.098,0.583,12.141-0.028"/>
	</g>
	<g>
		<path style="fill:none;stroke:#407BFF;stroke-linecap:round;stroke-linejoin:round;stroke-miterlimit:10;" d="M229.86,364.779
			c1.134-0.708,2.23-1.478,3.281-2.309"/>
		<path style="fill:none;stroke:#407BFF;stroke-linecap:round;stroke-linejoin:round;stroke-miterlimit:10;" d="M197.086,368.686
			c9.738,3.307,20.785,2.356,29.931-2.3"/>
		<path style="fill:none;stroke:#407BFF;stroke-linecap:round;stroke-linejoin:round;stroke-miterlimit:10;" d="M225.189,359.153
			c1.314-0.479,2.599-1.039,3.844-1.677"/>
		<path style="fill:none;stroke:#407BFF;stroke-linecap:round;stroke-linejoin:round;stroke-miterlimit:10;" d="M208.37,360.9
			c4.226,0.618,8.565,0.423,12.727-0.535"/>
	</g>
</g>
<g id="Angel_Shaped_2">
	<g>
		<g>
			<g>
				<g>
					<path style="fill:#E0E0E0;" d="M451.003,188.126l-74.444,11.372c7.006-4.556,31.802-42.54-8.988-41.624
						c-11.725,0.263-18.147,21.05-17.718,31.808c0.215,5.39,0.423,5.78,3.931,9.846l-74.932-27.765c0,0-24.577,25.383-7.721,77.86
						c7.572,23.573,34.586-6.253,34.586-6.253l22.029-9.881c0,0-3.424,40.927-14.418,71.079
						c-6.796,18.639-15.721,61.173-34.626,72.827c-9.373,5.778-12.388,4.304-13.55,7.839c-0.99,3.009,0.466,6.276,3.289,7.712
						c4.233,2.154,11.373,5.257,23.04,9.095c23.52,7.737,35.446,6.872,35.446,6.872l22.465-94.864l4.422-13.432l8.94,111.736
						c0,0,11.245,2.573,35.75-0.974c12.397-1.794,19.77-3.269,24.029-4.288c2.955-0.707,4.708-3.742,3.857-6.659
						c-0.595-2.041-14.39-7.738-18.031-18.439c-6.957-20.452-8.683-33.275-14.577-68.339c-4.051-24.099,2.289-77.752,2.289-77.752
						l38.716,40.847c0,0,14.934,2.926,20.8-18.939C470.546,202.063,451.003,188.126,451.003,188.126z"/>
				</g>
			</g>
			<g>
				<g>
					<path style="fill:#263238;" d="M314.417,404.271c-4.729-0.803-10.823-2.16-18.254-4.442c-1.156-0.355-2.347-0.601-3.552-0.709
						c-2.442-0.22-6.796-0.646-9.263-1.132c-2.095-0.413-4.081-1.166-6.082-1.872c-0.869-0.088-1.737-0.193-2.603-0.297
						c4.133,1.76,9.607,3.85,16.82,6.223c15.328,5.042,25.715,6.427,31.103,6.783c0.042-0.247,0.089-0.493,0.131-0.739
						c-0.204-0.12-0.403-0.251-0.599-0.392C319.802,406.023,317.233,404.749,314.417,404.271z"/>
					<path style="fill:#263238;" d="M367.478,409.992c-0.032-0.003-0.075-0.016-0.126-0.036c-0.823-0.326-1.346-1.145-1.416-2.028
						l-8.609-107.592l-0.664-8.294c-0.867,2.94-1.914,5.859-2.828,8.799l8.922,111.512c0,0,1.28,0.289,3.885,0.54
						C372.145,413.341,376.427,413.785,367.478,409.992z"/>
					<path style="fill:#263238;" d="M390.134,169.294c-1.268-6.491-7-11.435-21.132-11.436c-0.002,0-0.004,0-0.005,0l0.005,3.521
						c6.66,0.001,11.47,1.137,14.412,3.37C385.852,165.963,388.185,167.392,390.134,169.294z"/>
					<path style="fill:#263238;" d="M364.668,204.876c-0.286-0.423-0.547-0.865-0.794-1.329l-1.264,0.822l-6.16-7.14
						c-2.906-3.369-2.906-3.369-3.079-7.687c-0.298-7.484,2.974-19.32,8.321-25.011c1.912-2.035,3.917-3.091,5.959-3.137
						c0.459-0.01,0.904-0.016,1.345-0.016v-3.521c-0.468,0-0.938,0.005-1.424,0.016c-11.725,0.263-18.147,21.05-17.718,31.808
						c0.215,5.39,0.423,5.78,3.931,9.846l-74.932-27.765c0,0-24.577,25.383-7.721,77.86c0.978,3.045,2.284,5.191,3.811,6.633
						c-0.945-4.093-1.516-8.272-1.819-12.227c-6.701-23.66-4.451-40.968-1.226-51.533c2.576-8.437,6.139-13.965,8.082-16.562
						l72.581,26.894l12.82,4.75l-2.145-2.486L364.668,204.876z"/>
					<path style="fill:#263238;" d="M450.732,192.971c1.624-0.155,3.16,0.041,4.599,0.526c-2.269-3.888-4.328-5.371-4.328-5.371
						l-72.339,11.05c-1.457,1.458-2.952,2.87-4.461,4.243l2.888-0.441l72.74-11.112
						C450.091,192.155,450.398,192.528,450.732,192.971z"/>
					<path style="fill:#263238;" d="M458.737,201.548c-0.075,0.418-0.147,0.837-0.216,1.256c1.658,6.394,0.22,14.13-0.889,20.7
						c-0.265,8.81-1.793,19.793-5.442,33.394c-1.779,6.632-7.705,17.401-7.208,17.519c0.955,0.227,3.435-3.738,4.314-3.744
						c2.446-2.834,4.704-6.934,6.294-12.863C463.199,229.447,461.871,211.936,458.737,201.548z"/>
					<path style="fill:#263238;" d="M268.456,386.525c0.016-0.064,0.022-0.128,0.043-0.191c0.042-0.127,0.073-0.191,0.072-0.198
						c0.166-0.136,0.675-0.353,1.237-0.574c0.352-0.207,0.719-0.402,1.115-0.569c0.294-0.124,0.567-0.172,0.823-0.177
						c2.082-0.814,4.953-2.048,8.806-4.423c16.054-9.896,24.978-39.057,31.494-60.349c1.713-5.597,3.192-10.43,4.592-14.268
						c11.028-30.247,14.477-70.301,14.618-71.992l0.11-1.32c-1.13,0.952-2.391,1.655-3.728,2.221
						c-0.654,6.907-4.415,42.75-14.309,69.884c-6.796,18.639-15.721,61.173-34.626,72.827c-9.373,5.778-12.388,4.304-13.55,7.839
						c-0.601,1.827-0.29,3.743,0.671,5.293C266.368,388.982,267.226,387.603,268.456,386.525z"/>
				</g>
			</g>
			<g style="opacity:0.7;">
				<g>
					<path style="fill:#FFFFFF;" d="M314.417,404.271c-4.729-0.803-10.823-2.16-18.254-4.442c-1.156-0.355-2.347-0.601-3.552-0.709
						c-2.442-0.22-6.796-0.646-9.263-1.132c-2.095-0.413-4.081-1.166-6.082-1.872c-0.869-0.088-1.737-0.193-2.603-0.297
						c4.133,1.76,9.607,3.85,16.82,6.223c15.328,5.042,25.715,6.427,31.103,6.783c0.042-0.247,0.089-0.493,0.131-0.739
						c-0.204-0.12-0.403-0.251-0.599-0.392C319.802,406.023,317.233,404.749,314.417,404.271z"/>
					<path style="fill:#FFFFFF;" d="M367.478,409.992c-0.032-0.003-0.075-0.016-0.126-0.036c-0.823-0.326-1.346-1.145-1.416-2.028
						l-8.609-107.592l-0.664-8.294c-0.867,2.94-1.914,5.859-2.828,8.799l8.922,111.512c0,0,1.28,0.289,3.885,0.54
						C372.145,413.341,376.427,413.785,367.478,409.992z"/>
					<path style="fill:#FFFFFF;" d="M390.134,169.294c-1.268-6.491-7-11.435-21.132-11.436c-0.002,0-0.004,0-0.005,0l0.005,3.521
						c6.66,0.001,11.47,1.137,14.412,3.37C385.852,165.963,388.185,167.392,390.134,169.294z"/>
					<path style="fill:#FFFFFF;" d="M364.668,204.876c-0.286-0.423-0.547-0.865-0.794-1.329l-1.264,0.822l-6.16-7.14
						c-2.906-3.369-2.906-3.369-3.079-7.687c-0.298-7.484,2.974-19.32,8.321-25.011c1.912-2.035,3.917-3.091,5.959-3.137
						c0.459-0.01,0.904-0.016,1.345-0.016v-3.521c-0.468,0-0.938,0.005-1.424,0.016c-11.725,0.263-18.147,21.05-17.718,31.808
						c0.215,5.39,0.423,5.78,3.931,9.846l-74.932-27.765c0,0-24.577,25.383-7.721,77.86c0.978,3.045,2.284,5.191,3.811,6.633
						c-0.945-4.093-1.516-8.272-1.819-12.227c-6.701-23.66-4.451-40.968-1.226-51.533c2.576-8.437,6.139-13.965,8.082-16.562
						l72.581,26.894l12.82,4.75l-2.145-2.486L364.668,204.876z"/>
					<path style="fill:#FFFFFF;" d="M450.732,192.971c1.624-0.155,3.16,0.041,4.599,0.526c-2.269-3.888-4.328-5.371-4.328-5.371
						l-72.339,11.05c-1.457,1.458-2.952,2.87-4.461,4.243l2.888-0.441l72.74-11.112
						C450.091,192.155,450.398,192.528,450.732,192.971z"/>
					<path style="fill:#FFFFFF;" d="M458.737,201.548c-0.075,0.418-0.147,0.837-0.216,1.256c1.658,6.394,0.22,14.13-0.889,20.7
						c-0.265,8.81-1.793,19.793-5.442,33.394c-1.779,6.632-7.705,17.401-7.208,17.519c0.955,0.227,3.435-3.738,4.314-3.744
						c2.446-2.834,4.704-6.934,6.294-12.863C463.199,229.447,461.871,211.936,458.737,201.548z"/>
					<path style="fill:#FFFFFF;" d="M268.456,386.525c0.016-0.064,0.022-0.128,0.043-0.191c0.042-0.127,0.073-0.191,0.072-0.198
						c0.166-0.136,0.675-0.353,1.237-0.574c0.352-0.207,0.719-0.402,1.115-0.569c0.294-0.124,0.567-0.172,0.823-0.177
						c2.082-0.814,4.953-2.048,8.806-4.423c16.054-9.896,24.978-39.057,31.494-60.349c1.713-5.597,3.192-10.43,4.592-14.268
						c11.028-30.247,14.477-70.301,14.618-71.992l0.11-1.32c-1.13,0.952-2.391,1.655-3.728,2.221
						c-0.654,6.907-4.415,42.75-14.309,69.884c-6.796,18.639-15.721,61.173-34.626,72.827c-9.373,5.778-12.388,4.304-13.55,7.839
						c-0.601,1.827-0.29,3.743,0.671,5.293C266.368,388.982,267.226,387.603,268.456,386.525z"/>
				</g>
			</g>
		</g>
	</g>
</g>
<g id="Character_2_1_">
	<g>
		<g style="opacity:0.1;">
			<path style="fill:#FFC0BA;" d="M435.175,273.385c-2.205-0.449-2.787-2.909-4.353-4.273c-1.505-1.305-1.803-3.055-1.873-5.151
				c0.096-0.028,0.193-0.056,0.295-0.099c2.376-0.896,4.273-2.107,5.891-3.899c1.458,1.049,2.927,2.093,4.396,3.138
				c1.433,1.708,2.859,4.464,3.338,6.822c0.004-0.05,0.044-0.067,0.085-0.084c-0.022,0.033-0.055,0.071-0.081,0.094
				C440.912,272.397,437.62,273.89,435.175,273.385z"/>
			<g>
				<path style="fill:#407BFF;" d="M429.245,263.861c-0.102,0.043-0.199,0.071-0.295,0.099c-5.452,1.758-10.565-4.828-14.671-8.796
					c-5.778-5.588-11.406-11.335-16.88-17.23c-3.248-3.497-3.871-9.194-5.864-13.538c-1.859-4.053-0.851-9.265,1.326-13.26
					c2.177-3.995,6.496-7.142,9.811-10.278c9.542,20.195,20.744,39.589,33.465,57.905c-0.327,0.425-0.653,0.825-1.001,1.199
					C433.518,261.754,431.621,262.966,429.245,263.861z"/>
			</g>
		</g>
		<g style="opacity:0.1;">
			<path style="fill:#FFC0BA;" d="M277.403,255.436c2.235,0.267,3.56-1.885,5.476-2.688c1.84-0.766,2.672-2.333,3.398-4.301
				c-0.083-0.057-0.165-0.114-0.249-0.187c-1.974-1.597-3.394-3.344-4.367-5.554c-1.714,0.537-3.437,1.067-5.159,1.597
				c-1.898,1.171-4.118,3.338-5.314,5.426c0.012-0.048-0.021-0.077-0.055-0.106c0.01,0.039,0.029,0.084,0.047,0.115
				C272.268,252.694,274.923,255.147,277.403,255.436z"/>
			<g>
				<path style="fill:#407BFF;" d="M286.027,248.26c0.084,0.073,0.166,0.13,0.249,0.187c4.622,3.383,11.547-1.261,16.692-3.737
					c7.242-3.488,14.392-7.173,21.441-11.048c4.183-2.298,6.566-7.51,9.824-11.008c3.039-3.262,3.721-8.527,2.911-13.004
					c-0.81-4.477-3.921-8.822-6.082-12.842c-15.408,16.17-32.14,31.059-49.975,44.446c0.177,0.506,0.36,0.988,0.574,1.453
					C282.633,244.917,284.053,246.663,286.027,248.26z"/>
			</g>
		</g>
		<g>
			<g>
				<path style="fill:#FFC0BA;" d="M452.741,197.978c-1.264,1.862-3.758,1.452-5.62,2.372c-1.784,0.887-3.513,0.488-5.475-0.255
					c0.011-0.1,0.022-0.199,0.022-0.31c0.089-2.538-0.299-4.755-1.33-6.939c1.529-0.942,3.059-1.895,4.589-2.849
					c2.128-0.665,5.22-0.92,7.581-0.455c-0.044-0.022-0.044-0.066-0.044-0.111c0.022,0.033,0.044,0.077,0.056,0.111
					C454.038,192.303,454.148,195.916,452.741,197.978z"/>
				<g>
					<path style="fill:#407BFF;" d="M441.668,199.785c0,0.111-0.011,0.211-0.022,0.31c-0.477,5.708-8.523,7.892-13.766,10.153
						c-7.382,3.181-14.853,6.163-22.401,8.945c-4.478,1.652-9.976,0.033-14.752,0.2c-4.456,0.155-8.878-2.782-11.727-6.329
						c-2.849-3.547-4.09-8.745-5.708-13.012c22.312-1.031,44.524-3.902,66.326-8.59c0.266,0.465,0.51,0.92,0.721,1.385
						C441.369,195.03,441.757,197.247,441.668,199.785z"/>
				</g>
			</g>
			<g>
				<path style="fill:#FFC0BA;" d="M276.761,179.938c0.821,2.096,3.343,2.247,4.956,3.556c1.544,1.259,3.319,1.253,5.396,0.962
					c0.011-0.1,0.023-0.199,0.047-0.308c0.475-2.495,1.343-4.571,2.831-6.473c-1.283-1.257-2.564-2.525-3.845-3.793
					c-1.929-1.119-4.888-2.052-7.293-2.12c0.048-0.012,0.058-0.055,0.068-0.098c-0.029,0.027-0.06,0.066-0.079,0.096
					C276.751,174.117,275.844,177.616,276.761,179.938z"/>
				<g>
					<path style="fill:#407BFF;" d="M287.16,184.148c-0.025,0.108-0.036,0.208-0.047,0.308c-0.797,5.672,6.567,9.581,11.18,12.946
						c6.496,4.735,13.122,9.295,19.868,13.677c4.002,2.601,9.721,2.238,14.343,3.457c4.311,1.137,9.274-0.75,12.836-3.579
						c3.563-2.829,5.923-7.624,8.444-11.428c-21.531-5.939-42.559-13.651-62.784-23.044c-0.362,0.395-0.701,0.785-1.009,1.192
						C288.503,179.577,287.635,181.654,287.16,184.148z"/>
				</g>
			</g>
			<g>
				<g>
					<g>
						<path style="fill:#407BFF;" d="M316.691,387.229c-0.482,0.313-1.155,0.367-1.746,0.324c-2.365-0.171-4.526-1.406-6.323-3.171
							c-0.128-12.347,8.536-53.197,11.319-68.927c3.166-17.898,6.047-34.225,11.768-51.789c5.93-2.11,14.596-3.198,20.776-4.387
							c6.521,10.154,2.398,10.902,3.2,15.684C348.714,293.259,318.78,381.614,316.691,387.229z"/>
						<g>
							<g>
								<path style="fill:#407BFF;" d="M316.309,386.021l-0.655,1.103c0.044-0.168,0.116-0.387,0.215-0.654
									C316.045,386.358,316.196,386.21,316.309,386.021z"/>
							</g>
							<path style="fill:#263238;" d="M298.287,397.272c-1.355-0.881-3.496-1.111-4.785-0.136c-1.289,0.975-1.872,2.789-1.392,4.332
								c16.387,4.721,20.686,4.283,20.686,4.283c1.488-8.414,3.231-16.36,5.571-24.579c-3.113-2.289-6.855-3.327-10.516-2.093
								C307.192,381.427,306.749,395.784,298.287,397.272z"/>
						</g>
						<g>
							<polygon style="fill:#407BFF;" points="320.407,384.02 304.839,381.658 306.345,376.978 323.294,379.928 							"/>
							<polygon style="opacity:0.6;fill:#FAFAFA;enable-background:new    ;" points="320.407,384.02 304.839,381.658 
								306.345,376.978 323.294,379.928 							"/>
						</g>
					</g>
					<path style="fill:#407BFF;" d="M353.195,278.707c0,0,2.695-6.991,3.904,0c1.21,6.991,4.641-22.59,4.641-22.59l-3.942-3.121
						l-4.603,4.816V278.707z"/>
				</g>
				<g>
					<path style="fill:#407BFF;" d="M375.341,395.492c0.419,0.392,1.073,0.563,1.663,0.625c2.358,0.245,4.702-0.594,6.779-2.018
						c2.282-12.135,0.886-53.87,0.893-69.844c0.008-18.176,0.023-34.755-2.542-53.048c-5.471-3.113-13.813-5.699-19.69-7.948
						c-7.683,7.617-4.265,10.315-5.89,14.884C360.222,297.374,374.265,389.599,375.341,395.492z"/>
					<g>
						<g>
							<path style="fill:#407BFF;" d="M374.987,392.569l0.452,1.201c-0.014-0.173-0.047-0.401-0.098-0.681
								C375.188,392.947,375.064,392.775,374.987,392.569z"/>
						</g>
						<path style="fill:#263238;" d="M390.766,406.795c1.488-0.63,3.636-0.483,4.735,0.702c1.099,1.185,1.356,3.073,0.615,4.508
							c-16.96,1.787-21.116,0.604-21.116,0.604c0.004-8.545-0.324-16.673-1.193-25.174c3.465-1.71,7.33-2.079,10.72-0.225
							C384.765,389.638,382.694,403.851,390.766,406.795z"/>
					</g>
					<g>
						<polygon style="fill:#407BFF;" points="371.301,389.883 387.042,390.276 386.376,385.405 369.173,385.35 						"/>
						<polygon style="opacity:0.6;fill:#FAFAFA;enable-background:new    ;" points="371.301,389.883 387.042,390.276 
							386.376,385.405 369.173,385.35 						"/>
					</g>
				</g>
			</g>
			<g>
				<path style="fill:#407BFF;" d="M364.021,207.19c-1.879,20.192-3.758,40.384-5.637,60.576
					c-11.658-0.452-22.914-2.657-34.06-5.863c0,0,2.107-35.33,9.984-51.43c1.449-2.963,3.418-6.303,5.089-9.173
					c6.148-0.848,11.924-1.992,18.071-2.84c2.311-0.319,4.568,1.52,5.743,3.304C364.385,203.547,364.209,205.171,364.021,207.19z"/>
				<path style="opacity:0.2;" d="M364.021,207.19c-1.879,20.192-3.758,40.384-5.637,60.576c-11.658-0.452-22.914-2.657-34.06-5.863
					c0,0,2.107-35.33,9.984-51.43c1.449-2.963,3.418-6.303,5.089-9.173c6.148-0.848,11.924-1.992,18.071-2.84
					c2.311-0.319,4.568,1.52,5.743,3.304C364.385,203.547,364.209,205.171,364.021,207.19z"/>
			</g>
			<g>
				<path style="fill:#407BFF;" d="M363.303,207.06c-1.646,20.212-3.293,40.424-4.939,60.637c11.56,1.573,23.028,1.352,34.561,0.124
					c0,0,4.044-35.161-0.926-52.381c-0.915-3.169-2.275-6.8-3.424-9.916c-5.908-1.9-11.398-4.027-17.306-5.927
					c-2.221-0.714-4.762,0.705-6.228,2.259C363.575,203.408,363.468,205.039,363.303,207.06z"/>
				<path style="opacity:0.2;" d="M363.303,207.06c-1.646,20.212-3.293,40.424-4.939,60.637c11.56,1.573,23.028,1.352,34.561,0.124
					c0,0,4.044-35.161-0.926-52.381c-0.915-3.169-2.275-6.8-3.424-9.916c-5.908-1.9-11.398-4.027-17.306-5.927
					c-2.221-0.714-4.762,0.705-6.228,2.259C363.575,203.408,363.468,205.039,363.303,207.06z"/>
			</g>
			<g>
				<g>
					<g>
						<path style="opacity:0.2;enable-background:new    ;" d="M333.392,245.794c0,0,8.798-2.908,13.507-9
							c4.71-6.092,1.078,21.016,1.078,21.016l-15.516-1.354L333.392,245.794z"/>
					</g>
					<g>
						<polygon style="opacity:0.2;enable-background:new    ;" points="363.623,207.799 358.365,267.697 356.682,267.687 
							361.748,207.636 						"/>
						<path style="opacity:0.2;enable-background:new    ;" d="M386.943,250.399c0,0-8.161-4.388-11.745-11.203
							c-3.583-6.815-4.701,20.512-4.701,20.512l15.516,1.354L386.943,250.399z"/>
					</g>
				</g>
				<path style="opacity:0.2;fill:none;stroke:#000000;stroke-miterlimit:10;enable-background:new    ;" d="M331.821,263.799
					c0.735-8.418,3.773-28.111,5.148-34.112c0.299-1.303,0.535-2.631,0.381-3.962c-0.474-4.092-7.094-3.794-7.571-2.535"/>
				<g>
					<path style="opacity:0.2;fill:none;stroke:#000000;stroke-miterlimit:10;enable-background:new    ;" d="M385.366,268.471
						c0.734-8.418,1.329-30.361,1.014-36.51c-0.068-1.335-0.071-2.684,0.311-3.968c1.175-3.948,7.158-0.583,7.41,0.739"/>
				</g>
			</g>
			<g>
				<g>
					<path style="fill:#FFC0BA;" d="M372.336,187.798c-1.573,4.74-3.433,11.752-0.441,15.438c0,0-0.6,3.613-9.808,6.915
						c-4.33,1.553-8.569-2.747-6.784-6.987c0.554-1.316,1.394-1.87,1.394-1.87c5.619-0.6,5.752-2.83,5.294-6.739L372.336,187.798z"
						/>
					<g>
						<g>
							<path style="fill:#407BFF;" d="M357.893,197.161c-7.365,5.637-12.276,10.262-9.539,19.286
								c2.387,7.873,10.054,12.291,15.577,18.259c5.524,5.968,10.864,13.162,10.736,21.41c3.095-1.428,11.987-0.171,15.082-1.6
								c-3.37-9.34-25.202-30.723-31.346-35.757c-7.704-6.312,1.847-11.026,3.229-12.169c2.437-2.016,4.68-5.29,2.68-8.527
								C362.838,195.679,359.999,195.549,357.893,197.161z"/>
							<path style="opacity:0.5;fill:#FFFFFF;" d="M357.893,197.161c-7.365,5.637-12.276,10.262-9.539,19.286
								c2.387,7.873,10.054,12.291,15.577,18.259c5.524,5.968,10.864,13.162,10.736,21.41c3.095-1.428,11.987-0.171,15.082-1.6
								c-3.37-9.34-25.202-30.723-31.346-35.757c-7.704-6.312,1.847-11.026,3.229-12.169c2.437-2.016,4.68-5.29,2.68-8.527
								C362.838,195.679,359.999,195.549,357.893,197.161z"/>
						</g>
					</g>
					<path style="opacity:0.2;enable-background:new    ;" d="M369.177,191.749l-6.091,4.046c0.124,0.909,0.164,1.827,0.123,2.744
						c2.127-0.028,5.618-1.378,6.353-3.581C369.702,193.872,369.569,192.77,369.177,191.749z"/>
					<path style="fill:#FFC0BA;" d="M379.035,182.918c-2.95,7.09-4.051,10.142-8.993,12.586c-7.438,3.684-15.496-1.501-14.725-9.32
						c0.707-7.043,5.432-17.487,13.509-17.865c5.772-0.33,10.719,4.082,11.048,9.854
						C379.968,179.799,379.68,181.423,379.035,182.918z"/>
					<path style="fill:#263238;" d="M366.842,180.812c-0.211,0.587-0.689,0.958-1.07,0.831c-0.381-0.128-0.533-0.726-0.334-1.314
						c0.199-0.588,0.689-0.958,1.07-0.83C366.889,179.626,367.004,180.242,366.842,180.812z"/>
					<path style="fill:#263238;" d="M360.18,178.518c-0.211,0.598-0.689,0.958-1.07,0.83c-0.381-0.128-0.533-0.726-0.334-1.314
						c0.199-0.588,0.689-0.958,1.069-0.819C360.225,177.354,360.379,177.93,360.18,178.518z"/>
					<path style="fill:#EA863E;" d="M361.864,180.298c-0.994,1.162-2.144,2.183-3.415,3.033c0.464,0.642,1.182,1.051,1.971,1.123
						L361.864,180.298z"/>
					<path style="fill:#263238;" d="M369.983,180.402c-0.158-0.025-0.281-0.152-0.302-0.311c-0.315-1.164-1.101-2.144-2.169-2.704
						c-0.182-0.092-0.256-0.315-0.165-0.498c0.09-0.178,0.307-0.249,0.484-0.16c0.004,0.002,0.008,0.004,0.012,0.006
						c1.289,0.663,2.225,1.855,2.564,3.265c0.025,0.198-0.114,0.378-0.312,0.403c0,0,0,0,0,0
						C370.058,180.415,370.019,180.414,369.983,180.402z"/>
					<path style="fill:#263238;" d="M359.247,174.755c-0.131-0.025-0.24-0.116-0.288-0.241c-0.068-0.191,0.03-0.401,0.219-0.472
						c1.109-0.452,2.37-0.323,3.364,0.345c0.159,0.109,0.199,0.327,0.089,0.486c-0.005,0.008-0.011,0.015-0.017,0.023
						c-0.119,0.16-0.344,0.194-0.504,0.076c-0.001-0.001-0.003-0.002-0.004-0.003l0,0c-0.793-0.493-1.773-0.579-2.64-0.231
						C359.396,174.765,359.319,174.771,359.247,174.755z"/>
					<path style="fill:#263238;" d="M374.973,186.645c0.392-0.606,1.009-1.029,1.646-1.367c0.358-0.191,1.985-0.139,2.114,0.246
						c0.076,0.226,0.04,0.473,0.004,0.709c-0.196,1.267-0.392,2.534-0.588,3.801c0.999-0.829,1.701-2.009,1.95-3.283
						c0.249-1.274,0.045-2.632-0.568-3.776c-0.132-0.246-0.283-0.485-0.478-0.685C376.392,179.542,375.012,184.936,374.973,186.645z
						"/>
					<path style="fill:#FFC0BA;" d="M379.076,189.17c-0.905,1.138-2.222,1.874-3.665,2.048c-1.922,0.2-2.57-1.596-1.77-3.256
						c0.733-1.486,2.608-3.385,4.414-2.85c1.3,0.43,2.005,1.832,1.575,3.132C379.515,188.589,379.326,188.906,379.076,189.17z"/>
					<g>
						<path style="fill:#263238;" d="M359.814,186.876c0,0,2.015-0.072,7.332,1.506c-1.036,2.137-2.536,3.662-5.263,2.853
							c-1.395-0.215-2.343-2.019-2.116-4.029C359.779,187.096,359.795,186.986,359.814,186.876z"/>
						<path style="fill:#DE5753;" d="M363.473,189.756c-1.032-0.393-2.143-0.304-3.174,0.255c0.419,0.627,0.971,1.044,1.579,1.195
							c1.03,0.397,2.14,0.307,3.168-0.256C364.633,190.316,364.082,189.898,363.473,189.756z"/>
						<path style="fill:#FAFAFA;" d="M360.068,186.886c0.004,0.61,0.246,1.147,0.627,1.394c1.581,0.457,3.192,0.724,4.818,0.8
							c0.517,0.078,1.041-0.218,1.399-0.792C364.669,187.568,362.381,187.098,360.068,186.886z"/>
					</g>
					<g>
						<g>
							<g>
								<path style="fill:#407BFF;" d="M382.691,183.651c-0.78,0.652-1.426,1.251-1.635,2.007c-0.096,0.333-0.641,0.411-1.046,0.249
									c-0.404-0.169-0.692-0.489-0.968-0.8c-2.894-3.283-6.006-6.449-9.314-9.47c-1.347-1.233-2.761-2.463-4.47-3.291
									c-1.71-0.822-3.942-1.065-5.539-0.462c0.104-1.258,0.504-2.451,1.149-3.524c4.302-0.003,8.666,1.411,12.109,3.927
									c3.343,2.442,5.736,5.781,8.065,9.049c0.49,0.686,0.979,1.378,1.469,2.064C382.572,183.483,382.626,183.559,382.691,183.651
									z"/>
							</g>
							<path style="opacity:0.8;fill:#FFFFFF;" d="M382.691,183.651c-0.78,0.652-1.426,1.251-1.635,2.007
								c-0.096,0.333-0.641,0.411-1.046,0.249c-0.404-0.169-0.692-0.489-0.968-0.8c-2.894-3.283-6.006-6.449-9.314-9.47
								c-1.347-1.233-2.761-2.463-4.47-3.291c-1.71-0.822-3.942-1.065-5.539-0.462c0.104-1.258,0.504-2.451,1.149-3.524
								c4.302-0.003,8.666,1.411,12.109,3.927c3.343,2.442,5.736,5.781,8.065,9.049c0.49,0.686,0.979,1.378,1.469,2.064
								C382.572,183.483,382.626,183.559,382.691,183.651z"/>
						</g>
						<g>
							<g>
								<path style="fill:#407BFF;" d="M388.628,173.727c-0.575,0.109-1.098,0.073-1.643-0.225c0.069,0.327,0.01,0.657-0.165,0.925
									c-0.836-0.572-0.93-1.034-1.088-1.446c0,0-0.667,0.718-1.036,0.453c-0.095-0.068-0.504-0.796-0.266-1.487
									c-0.516,0.361-1.477,0.162-1.477,0.162s-0.449-1.002,0.027-1.236c-0.456-0.013-0.928-0.159-1.317-0.406
									c0.113-0.286,0.315-0.522,0.427-0.808c-0.383-0.001-0.691-0.097-1.039-0.278c0.19-0.303,0.245-0.491,0.613-0.641
									c-0.527-0.059-0.73-0.002-1.301-0.243c-0.012-0.342,0.666-0.769,1.069-0.652c0,0-0.169-0.089-0.346-0.302
									c-0.22-0.265-0.316-0.627-0.316-0.627c0.283-0.256,0.953-0.06,1.289,0.061c-0.494-0.199,0.028-1.021,0.028-1.021
									s1.043,0.083,1.451,0.402c-0.094-0.313,0.445-0.997,0.445-0.997s0.7,0.254,0.902,0.542c-0.014-0.317,0.372-0.567,0.57-0.813
									c0.389,0.215,0.502,0.506,0.891,0.72c0.092-0.402,0.601-0.452,1.047-0.49c0.52,0.485,0.29,1.163,0.29,1.163
									c0.421-0.12,0.997,0.005,1.399,0.252c-0.027,0.415-0.468,1.006-0.468,1.006c1.129,0.02,1.057,0.222,1.292,0.465
									c-0.282,0.404-0.224,0.635-0.932,0.757c0.784,0.155,0.836,0.555,1.44,0.751c-0.47,0.288-0.702,0.754-1.206,0.855
									c0.564,0.196,0.884,0.348,1.09,0.909c-0.429,0.277-0.828,0.336-1.227,0.286c0.507,0.167,0.505,0.555,0.669,0.985
									c-0.639-0.165-1.344-0.074-1.344-0.074S388.207,173.514,388.628,173.727z"/>
							</g>
							<g style="opacity:0.8;">
								<path style="fill:#FFFFFF;" d="M388.628,173.727c-0.575,0.109-1.098,0.073-1.643-0.225c0.069,0.327,0.01,0.657-0.165,0.925
									c-0.836-0.572-0.93-1.034-1.088-1.446c0,0-0.667,0.718-1.036,0.453c-0.095-0.068-0.504-0.796-0.266-1.487
									c-0.516,0.361-1.477,0.162-1.477,0.162s-0.449-1.002,0.027-1.236c-0.456-0.013-0.928-0.159-1.317-0.406
									c0.113-0.286,0.315-0.522,0.427-0.808c-0.383-0.001-0.691-0.097-1.039-0.278c0.19-0.303,0.245-0.491,0.613-0.641
									c-0.527-0.059-0.73-0.002-1.301-0.243c-0.012-0.342,0.666-0.769,1.069-0.652c0,0-0.169-0.089-0.346-0.302
									c-0.22-0.265-0.316-0.627-0.316-0.627c0.283-0.256,0.953-0.06,1.289,0.061c-0.494-0.199,0.028-1.021,0.028-1.021
									s1.043,0.083,1.451,0.402c-0.094-0.313,0.445-0.997,0.445-0.997s0.7,0.254,0.902,0.542c-0.014-0.317,0.372-0.567,0.57-0.813
									c0.389,0.215,0.502,0.506,0.891,0.72c0.092-0.402,0.601-0.452,1.047-0.49c0.52,0.485,0.29,1.163,0.29,1.163
									c0.421-0.12,0.997,0.005,1.399,0.252c-0.027,0.415-0.468,1.006-0.468,1.006c1.129,0.02,1.057,0.222,1.292,0.465
									c-0.282,0.404-0.224,0.635-0.932,0.757c0.784,0.155,0.836,0.555,1.44,0.751c-0.47,0.288-0.702,0.754-1.206,0.855
									c0.564,0.196,0.884,0.348,1.09,0.909c-0.429,0.277-0.828,0.336-1.227,0.286c0.507,0.167,0.505,0.555,0.669,0.985
									c-0.639-0.165-1.344-0.074-1.344-0.074S388.207,173.514,388.628,173.727z"/>
							</g>
						</g>
						<path style="fill:#263238;" d="M382.691,183.651c-0.065-0.092-0.12-0.167-0.18-0.251c-0.49-0.686-0.979-1.378-1.469-2.064
							c-2.329-3.268-4.722-6.607-8.065-9.049c-3.443-2.516-7.807-3.93-12.109-3.927c1.112-1.869,2.966-3.379,5.276-4.19
							c3.649-1.287,8.343-0.827,12.092,1.188c2.322,1.249,4.85,2.986,6.509,4.843c0.547,0.613,1.058,1.25,1.397,1.943
							c0.307,0.644,0.473,1.311,0.587,1.977C387.729,179.965,384.733,181.968,382.691,183.651z"/>
					</g>
					<g>
						<path style="fill:#263238;" d="M375.907,254.839c0.557,2.277,0.025,4.796-1.405,6.654c-1.43,1.858-3.73,3.016-6.074,3.058
							c0.837,0.732,1.674,1.464,2.511,2.195c1.563-0.988,3.126-1.976,4.689-2.964c-0.528,1.381-1.534,2.574-2.806,3.328
							c0.243,0.959,1.616,1.204,2.454,0.678c0.838-0.526,1.255-1.504,1.624-2.422c-0.641,1.642-1.874,3.045-3.419,3.892
							c0.655,1.531,2.963,1.653,4.282,0.636c1.319-1.017,1.89-2.705,2.393-4.293c-0.052,2.511-1.96,4.543-3.747,6.308
							c2.68,0.437,5.482-1.817,5.629-4.528c0.373,0.661,0.049,1.504-0.411,2.108c-0.461,0.603-1.064,1.123-1.335,1.832
							c-0.271,0.709-0.009,1.71,0.735,1.858c0.66,0.132,1.228-0.453,1.622-0.998c1.111-1.533,2.011-3.217,2.669-4.991
							c-0.669,1.742-1.337,3.485-2.006,5.227c2.49-1.503,4.411-3.926,5.305-6.693c-0.6,1.448-1.2,2.896-1.799,4.344
							c3.327-1.488,4.763-5.451,5.127-9.077c0.194-1.929,0.156-3.985-0.819-5.661c-1.347-2.314-4.235-3.372-6.911-3.264
							c-2.676,0.108-5.207,1.179-7.658,2.255C377.169,254.365,375.907,254.839,375.907,254.839z"/>
					</g>
					<g>
						<g>
							<g>
								<path style="fill:#407BFF;" d="M372.751,199.027c-5.051,1.867-10.446-3.6-15.643-2.224c-3.47,0.919-5.508,4.519-7.165,7.794
									c-0.383,0.757-0.77,1.663-0.396,2.424c0.24,0.489,0.737,0.777,1.213,1.023c7.867,4.057,17.647,3.899,25.387-0.41
									c-0.976-2.699-1.573-5.543-1.766-8.417L372.751,199.027z"/>
							</g>
							<g style="opacity:0.4;">
								<path style="fill:#FFFFFF;" d="M372.751,199.027c-5.051,1.867-10.446-3.6-15.643-2.224c-3.47,0.919-5.508,4.519-7.165,7.794
									c-0.383,0.757-0.77,1.663-0.396,2.424c0.24,0.489,0.737,0.777,1.213,1.023c7.867,4.057,17.647,3.899,25.387-0.41
									c-0.976-2.699-1.573-5.543-1.766-8.417L372.751,199.027z"/>
							</g>
						</g>
					</g>
				</g>
				<g>
					<g>
						<path style="fill:#407BFF;" d="M372.2,180.271c-0.178,0.526-0.153,1.119-0.42,1.606c-0.313,0.573-1.022,1.033-0.899,1.674
							c0.06,0.315,0.323,0.574,0.335,0.894c0.029,0.791-1.412,1.357-0.942,1.994c0.134,0.182,0.381,0.24,0.547,0.393
							c0.304,0.28,0.25,0.778,0.089,1.16c-0.161,0.381-0.406,0.746-0.415,1.16c-0.008,0.414,0.388,0.866,0.77,0.708
							c-0.083,0.855-0.167,1.711-0.25,2.566c0.239-0.056,0.479-0.112,0.718-0.168c0.161,0.929,1.262,1.313,2.182,1.518
							c0.556,0.124,1.193,0.231,1.648-0.111c0.294-0.221,0.449-0.594,0.751-0.805c0.276-0.193,0.632-0.222,0.945-0.345
							c0.657-0.26,1.068-0.903,1.434-1.508c0.738-1.219,1.483-2.455,1.886-3.822c0.402-1.367,0.43-2.902-0.238-4.161
							c-0.449-0.847-1.173-1.508-1.883-2.152c-1.171-1.062-2.46-2.637-3.949-3.274c-1.8-0.769-1.276,0.377-1.106,1.835
							C372.939,179.408,372.249,179.717,372.2,180.271z"/>
						<path style="opacity:0.8;fill:#FFFFFF;" d="M372.2,180.271c-0.178,0.526-0.153,1.119-0.42,1.606
							c-0.313,0.573-1.022,1.033-0.899,1.674c0.06,0.315,0.323,0.574,0.335,0.894c0.029,0.791-1.412,1.357-0.942,1.994
							c0.134,0.182,0.381,0.24,0.547,0.393c0.304,0.28,0.25,0.778,0.089,1.16c-0.161,0.381-0.406,0.746-0.415,1.16
							c-0.008,0.414,0.388,0.866,0.77,0.708c-0.083,0.855-0.167,1.711-0.25,2.566c0.239-0.056,0.479-0.112,0.718-0.168
							c0.161,0.929,1.262,1.313,2.182,1.518c0.556,0.124,1.193,0.231,1.648-0.111c0.294-0.221,0.449-0.594,0.751-0.805
							c0.276-0.193,0.632-0.222,0.945-0.345c0.657-0.26,1.068-0.903,1.434-1.508c0.738-1.219,1.483-2.455,1.886-3.822
							c0.402-1.367,0.43-2.902-0.238-4.161c-0.449-0.847-1.173-1.508-1.883-2.152c-1.171-1.062-2.46-2.637-3.949-3.274
							c-1.8-0.769-1.276,0.377-1.106,1.835C372.939,179.408,372.249,179.717,372.2,180.271z"/>
					</g>
					<path style="fill:#263238;" d="M372.508,187.729c0.035,0.776,0.146,1.567,0.504,2.256c0.358,0.69,0.998,1.268,1.766,1.388
						c1.24,0.194,2.334-0.797,3.111-1.783c1.214-1.542,2.186-3.274,2.87-5.113c0.105-0.282,0.205-0.583,0.153-0.879
						c-0.065-0.377-0.358-0.667-0.635-0.93c-1.249-1.185-2.497-2.37-3.746-3.555c-0.206-0.195-0.434-0.401-0.716-0.428
						c-0.885-0.083-2.262,3.368-2.525,4.085C372.708,184.351,372.432,186.045,372.508,187.729z"/>
				</g>
			</g>
		</g>
	</g>
	<g style="opacity:0.1;">
		<path style="fill:#407BFF;" d="M299.323,383.688c-0.525,0.232-1.198,0.178-1.776,0.041c-2.307-0.546-4.243-2.111-5.735-4.14
			c1.847-12.208,16.926-51.149,22.186-66.233c5.985-17.162,11.438-32.819,19.892-49.243c6.191-1.135,14.919-0.825,21.21-1.011
			c0.36,16,0.625,11.145,0.653,15.994C345.948,296.042,302.281,378.479,299.323,383.688z"/>
		<g>
			<g>
				<path style="fill:#407BFF;" d="M299.828,383.315l-0.823,0.984c0.07-0.158,0.177-0.363,0.317-0.611
					C299.514,383.605,299.687,383.483,299.828,383.315z"/>
			</g>
			<path style="fill:#263238;" d="M289.825,382.143c-3.988,4.425-10.255,7.303-16.202,6.966c-1.197-1.086-3.273-1.655-4.701-0.899
				c-1.428,0.757-2.293,2.454-2.067,4.054c15.422,7.279,26.354,9.966,26.354,9.966c2.814-8.069,5.804-15.634,9.427-23.373
				c-2.707-2.757-6.235-4.38-10.047-3.747C291.563,377.323,291.458,380.331,289.825,382.143z"/>
		</g>
		<g>
			<polygon style="fill:#407BFF;" points="304.194,381.994 289.203,377.174 291.437,372.796 307.697,378.416 			"/>
			<polygon style="opacity:0.6;fill:#FAFAFA;enable-background:new    ;" points="304.194,381.994 289.203,377.174 291.437,372.796 
				307.697,378.416 			"/>
		</g>
	</g>
	<g style="opacity:0.1;">
		<g style="opacity:0.5;">
			<path style="fill:#407BFF;" d="M394.22,392.141c0.479,0.317,1.151,0.377,1.743,0.34c2.366-0.15,4.538-1.366,6.351-3.115
				c0.237-12.345-8.064-53.27-10.707-69.025c-3.007-17.925-5.743-34.277-11.308-51.892c-5.911-2.163-14.567-3.328-20.736-4.571
				c-3.051,15.711-2.495,10.88-3.339,15.655C363.033,297.89,392.182,386.508,394.22,392.141z"/>
			<g>
				<g>
					<path style="fill:#407BFF;" d="M393.785,391.688l0.645,1.109c-0.042-0.168-0.113-0.388-0.21-0.656
						C394.046,392.027,393.895,391.878,393.785,391.688z"/>
				</g>
				<path style="fill:#263238;" d="M403.843,392.218c3.185,5.033,8.878,8.927,14.797,9.597c1.362-0.869,3.505-1.08,4.785-0.094
					c1.28,0.986,1.847,2.805,1.354,4.344c-16.428,4.576-27.657,5.382-27.657,5.382c-1.413-8.427-3.086-16.388-5.353-24.627
					c3.133-2.261,6.884-3.266,10.534-2C402.941,387.174,402.538,390.157,403.843,392.218z"/>
			</g>
			<g>
				<polygon style="fill:#407BFF;" points="389.704,389.65 405.293,387.426 403.828,382.734 386.854,385.533 				"/>
				<polygon style="opacity:0.6;fill:#FAFAFA;enable-background:new    ;" points="389.704,389.65 405.293,387.426 403.828,382.734 
					386.854,385.533 				"/>
			</g>
		</g>
	</g>
	<g>
		<path style="fill:none;stroke:#407BFF;stroke-linecap:round;stroke-linejoin:round;stroke-miterlimit:10;" d="M277.419,200.013
			c-4.063,11.589-3.485,24.824,1.905,35.886"/>
		<path style="fill:none;stroke:#407BFF;stroke-linecap:round;stroke-linejoin:round;stroke-miterlimit:10;" d="M281.298,191.749
			c-0.963,1.596-1.82,3.252-2.571,4.954"/>
		<path style="fill:none;stroke:#407BFF;stroke-linecap:round;stroke-linejoin:round;stroke-miterlimit:10;" d="M282.942,201.708
			c-3.023,8.018-3.482,16.98-1.295,25.265"/>
		<g>
			<path style="fill:none;stroke:#407BFF;stroke-linecap:round;stroke-linejoin:round;stroke-miterlimit:10;" d="M316.105,399.443
				c3.816,0.734,7.708,1.062,11.6,0.945"/>
			<path style="fill:none;stroke:#407BFF;stroke-linecap:round;stroke-linejoin:round;stroke-miterlimit:10;" d="M278.375,384.036
				c4.832,4.131,10.408,7.337,16.364,9.541"/>
			<path style="fill:none;stroke:#407BFF;stroke-linecap:round;stroke-linejoin:round;stroke-miterlimit:10;" d="M317.738,394.069
				c0.66,0.078,1.321,0.143,1.984,0.193"/>
			<path style="fill:none;stroke:#407BFF;stroke-linecap:round;stroke-linejoin:round;stroke-miterlimit:10;" d="M289.847,384.897
				c3.362,1.948,6.959,3.485,10.685,4.587"/>
		</g>
		<g>
			<path style="fill:none;stroke:#407BFF;stroke-linecap:round;stroke-linejoin:round;stroke-miterlimit:10;" d="M411.325,401.183
				c0.926-0.483,1.837-0.999,2.729-1.545"/>
			<path style="fill:none;stroke:#407BFF;stroke-linecap:round;stroke-linejoin:round;stroke-miterlimit:10;" d="M397.753,406.191
				c3.45-0.734,6.819-1.834,10.024-3.299"/>
			<path style="fill:none;stroke:#407BFF;stroke-linecap:round;stroke-linejoin:round;stroke-miterlimit:10;" d="M366.857,405.158
				c1.952,0.463,3.931,0.794,5.922,0.998"/>
			<path style="fill:none;stroke:#407BFF;stroke-linecap:round;stroke-linejoin:round;stroke-miterlimit:10;" d="M395.185,397.359
				c3.828-1.062,7.641-2.608,10.689-4.584"/>
			<path style="fill:none;stroke:#407BFF;stroke-linecap:round;stroke-linejoin:round;stroke-miterlimit:10;" d="M388.626,398.713
				c1.019-0.136,2.072-0.314,3.143-0.532"/>
			<path style="fill:none;stroke:#407BFF;stroke-linecap:round;stroke-linejoin:round;stroke-miterlimit:10;" d="M369.291,399.355
				c0.832,0.225,1.142,0.299,2.118,0.489"/>
		</g>
		<path style="fill:none;stroke:#407BFF;stroke-linecap:round;stroke-linejoin:round;stroke-miterlimit:10;" d="M447.792,247.397
			c-1.135,2.451-2.487,4.8-4.053,7.008"/>
		<path style="fill:none;stroke:#407BFF;stroke-linecap:round;stroke-linejoin:round;stroke-miterlimit:10;" d="M448.965,210.521
			c4.688,11.752,4.133,25.419-1.173,36.876"/>
		<path style="fill:none;stroke:#407BFF;stroke-linecap:round;stroke-linejoin:round;stroke-miterlimit:10;" d="M446.517,227.678
			c0.07,6.017-1.158,12.051-3.62,17.543"/>
		<path style="fill:none;stroke:#407BFF;stroke-linecap:round;stroke-linejoin:round;stroke-miterlimit:10;" d="M445.725,220.082
			c0.244,1.221,0.431,2.452,0.563,3.689"/>
	</g>
</g>
</svg>
